<?xml version="1.0" encoding="UTF-8" standalone="no"?>
<svg
   version="1.0"
   width="243.97043pt"
   height="132.45955pt"
   viewBox="0 0 243.97043 132.45955"
   preserveAspectRatio="xMidYMid meet"
   id="svg332"
   sodipodi:docname="nymphes-top-W.svg"
   inkscape:version="1.1.1 (eb90963e84, 2021-10-02)"
   xmlns:inkscape="http://www.inkscape.org/namespaces/inkscape"
   xmlns:sodipodi="http://sodipodi.sourceforge.net/DTD/sodipodi-0.dtd"
   xmlns="http://www.w3.org/2000/svg"
   xmlns:svg="http://www.w3.org/2000/svg">
  <defs
     id="defs336" />
  <sodipodi:namedview
     id="namedview334"
     pagecolor="#ffffff"
     bordercolor="#666666"
     borderopacity="1.0"
     inkscape:pageshadow="2"
     inkscape:pageopacity="0.0"
     inkscape:pagecheckerboard="0"
     inkscape:document-units="pt"
     showgrid="false"
     inkscape:zoom="1"
     inkscape:cx="211"
     inkscape:cy="80.5"
     inkscape:window-width="1867"
     inkscape:window-height="1056"
     inkscape:window-x="53"
     inkscape:window-y="24"
     inkscape:window-maximized="1"
     inkscape:current-layer="svg332"
     fit-margin-top="0"
     fit-margin-left="0"
     fit-margin-right="0"
     fit-margin-bottom="0" />
  <g
     transform="matrix(0.02011453,0,0,-0.02070801,-29.370552,167.66053)"
     fill="#000000"
     stroke="none"
     id="g330">
    <path
       d="m 1471,8091 c -12,-8 -13,-291 -8,-2013 4,-1101 7,-2504 7,-3116 V 1850 l 28,-11 c 17,-7 265,-13 690,-16 364,-4 662,-10 662,-15 0,-11 58,-10 65,2 3,5 12,10 18,10 8,0 8,-3 -2,-9 -9,-6 -10,-11 -2,-15 6,-4 16,-4 21,-1 6,3 10,0 10,-7 0,-11 2,-11 8,0 7,10 15,10 36,2 15,-5 32,-8 37,-4 5,3 9,1 9,-4 0,-12 32,-12 48,1 8,6 12,6 12,-2 0,-7 6,-11 13,-10 6,1 19,0 27,-4 32,-12 60,-15 54,-6 -6,11 39,2 67,-12 9,-5 19,-6 22,-3 2,3 31,5 63,5 81,1 86,0 80,-9 -6,-11 25,-12 39,-2 6,4 19,6 30,4 11,-2 53,-4 92,-6 40,-2 73,-7 73,-11 0,-4 9,-3 20,3 11,6 20,7 20,2 0,-9 59,-7 68,3 2,2 11,-3 20,-11 12,-13 16,-13 23,-2 7,10 9,10 9,0 0,-9 5,-10 18,-3 21,11 148,4 175,-11 13,-7 17,-7 13,0 -3,6 -2,13 4,17 5,3 10,2 10,-3 0,-5 46,-10 103,-11 56,-1 120,-2 142,-3 22,-1 51,4 64,11 13,7 21,8 17,3 -9,-15 6,-17 95,-12 44,3 89,2 100,-2 10,-4 19,-4 19,0 0,4 70,7 155,7 85,0 155,4 155,8 0,5 4,5 10,2 17,-11 99,-12 93,-1 -4,6 1,6 13,1 27,-12 65,-9 74,5 4,7 10,8 13,3 9,-15 69,-14 61,0 -3,7 1,4 9,-5 9,-11 17,-14 24,-7 13,13 53,20 53,9 0,-14 23,-17 82,-11 31,4 55,4 53,0 -3,-3 9,-6 25,-5 17,1 30,3 30,6 0,4 16,4 35,2 22,-3 35,0 35,7 0,7 5,9 12,5 19,-12 66,-15 73,-4 3,6 12,10 18,10 7,0 6,-4 -3,-10 -11,-8 -7,-10 20,-10 19,0 44,0 55,0 110,-2 155,1 155,13 0,8 3,7 9,-2 12,-18 129,-23 150,-7 12,9 13,7 8,-9 -7,-20 -7,-20 8,-1 8,11 15,16 15,10 0,-8 55,-12 70,-5 17,8 90,11 90,4 0,-5 9,-9 19,-9 11,0 18,3 15,7 -2,4 6,9 19,13 12,3 23,1 25,-4 2,-5 13,-5 28,0 20,8 24,6 25,-8 0,-10 3,-12 6,-4 2,6 9,10 14,7 17,-11 79,-15 79,-5 0,5 9,6 23,2 12,-4 39,-7 60,-5 20,1 37,-2 37,-8 0,-6 6,-7 12,-3 16,10 44,15 93,15 90,0 101,0 125,1 14,0 47,-2 73,-4 26,-3 50,-1 53,4 3,5 11,5 17,0 7,-5 62,-7 122,-6 144,5 207,4 217,-2 4,-3 5,2 2,10 -3,9 -1,16 5,16 6,0 11,-4 11,-9 0,-5 16,-8 35,-6 19,2 33,-1 30,-6 -3,-4 7,-4 22,1 15,6 72,9 125,7 53,-2 95,0 92,4 -6,10 38,-1 54,-14 8,-6 12,-6 12,2 0,6 9,11 21,11 14,0 18,-4 12,-12 -4,-7 6,-5 21,6 16,10 25,13 22,7 -5,-8 39,-10 153,-8 89,2 161,0 161,-4 0,-4 15,-4 33,0 38,8 124,7 133,-1 8,-8 37,2 46,16 5,7 8,7 8,-1 0,-7 5,-13 11,-13 6,0 9,7 5,15 -3,8 -1,15 4,15 6,0 10,-8 11,-17 0,-10 3,-13 5,-7 4,10 62,10 92,-1 6,-2 12,1 12,8 0,8 3,7 9,-2 8,-13 12,-13 27,0 14,11 18,11 22,1 3,-10 7,-10 18,-1 8,6 14,8 14,3 0,-5 24,-8 52,-6 68,4 119,2 129,-4 4,-2 10,0 14,6 4,7 12,7 25,0 11,-6 45,-8 77,-6 38,4 60,1 65,-7 5,-8 8,-8 8,-1 0,7 20,10 55,8 30,-2 57,2 61,7 4,7 10,7 18,0 8,-7 39,-7 87,-2 40,4 76,4 77,0 6,-14 24,-10 39,9 8,9 12,12 9,5 -5,-8 11,-11 59,-9 36,2 65,0 65,-3 0,-6 182,-6 205,-1 6,1 15,1 20,0 26,-6 253,-4 248,3 -6,10 15,9 38,-3 11,-6 24,-8 30,-4 15,9 89,12 89,3 0,-4 15,-4 33,0 18,5 41,7 52,5 10,-1 27,2 38,8 15,8 18,7 12,-3 -6,-9 -3,-11 8,-6 10,4 17,2 17,-5 0,-6 5,-7 13,-1 6,5 62,8 122,7 70,0 113,3 117,10 5,7 8,8 8,0 0,-6 19,-8 54,-4 30,3 52,2 50,-2 -8,-12 11,-9 24,4 9,9 12,9 12,-1 0,-9 4,-10 13,-4 6,5 51,9 99,8 47,0 85,2 83,5 -2,3 5,6 16,6 10,0 19,-3 19,-7 0,-9 41,1 58,14 7,5 12,6 12,0 0,-12 68,-14 76,-2 3,5 13,5 24,-1 15,-8 24,-6 40,10 15,15 20,17 20,5 0,-10 7,-14 23,-11 12,3 22,5 22,6 0,7 42,7 51,-1 8,-6 13,-6 16,0 1,6 21,13 43,15 22,2 56,8 75,12 l 35,8 -30,7 c -16,3 305,8 715,9 410,2 768,4 795,5 28,1 230,3 450,4 220,1 406,5 413,9 10,7 12,309 11,1523 -1,833 -3,1532 -5,1554 -1,22 -3,736 -3,1587 -1,1464 -2,1547 -18,1552 -35,9 -1441,16 -4203,21 -2763,4 -5099,11 -6945,20 -541,3 -936,1 -944,-4 z m 652,-416 c 1,-5 -18,-13 -43,-16 -43,-6 -43,-6 -9,-7 44,-2 68,-26 52,-50 -11,-18 -61,-27 -99,-18 -21,6 -24,13 -24,50 0,23 3,46 7,50 11,10 113,3 116,-9 z m 224,-22 c 5,-21 13,-38 18,-38 5,0 13,17 18,38 7,27 14,37 29,37 14,0 18,-5 14,-16 -3,-9 -9,-28 -12,-42 -9,-38 -23,-52 -51,-52 -18,0 -28,9 -39,35 -18,44 -18,75 0,75 8,0 18,-16 23,-37 z m 253,18 c 14,-28 12,-67 -4,-80 -8,-7 -36,-11 -63,-9 -48,3 -48,3 -51,42 -5,59 1,66 57,66 39,0 53,-4 61,-19 z m 90,-36 c 0,-49 -2,-55 -20,-55 -18,0 -21,6 -19,48 2,55 5,62 25,62 10,0 14,-14 14,-55 z m 170,40 c 18,-22 -2,-44 -24,-26 -23,19 -61,10 -61,-14 0,-17 6,-20 48,-18 26,1 47,-2 47,-7 0,-19 -32,-31 -77,-28 -48,3 -48,3 -51,42 -2,21 -1,44 2,52 8,20 100,19 116,-1 z m 180,0 c 0,-11 -13,-15 -47,-17 l -48,-2 48,-3 c 33,-3 47,-8 47,-19 0,-10 -13,-14 -47,-14 -68,0 -44,-16 30,-19 9,-1 17,-6 17,-11 0,-7 -22,-10 -57,-8 l -58,3 -3,39 c -5,60 1,66 63,66 42,0 55,-3 55,-15 z m 300,-4 c 5,-11 10,-36 10,-55 0,-29 -4,-36 -20,-36 -13,0 -20,7 -20,20 0,16 -7,20 -30,20 -23,0 -30,-4 -30,-20 0,-11 -7,-20 -15,-20 -11,0 -15,12 -15,49 0,55 5,59 67,60 32,1 45,-4 53,-18 z m 110,-6 c 13,-14 27,-25 32,-25 4,0 8,11 8,25 0,16 6,25 15,25 12,0 15,-13 15,-55 0,-65 -16,-72 -62,-28 l -28,27 v -28 c 0,-21 -4,-27 -17,-24 -14,3 -18,14 -18,48 0,25 1,48 3,53 6,14 29,7 52,-18 z m 231,15 c 14,-8 19,-21 19,-55 0,-38 -3,-45 -20,-45 -13,0 -20,7 -20,20 0,15 -7,20 -25,20 -18,0 -25,-5 -25,-20 0,-13 -7,-20 -20,-20 -17,0 -20,7 -20,45 0,31 5,47 18,54 22,13 68,14 93,1 z m 101,-32 c 3,-43 3,-43 46,-46 65,-5 51,-23 -15,-20 l -58,3 -3,39 c -2,21 -1,44 2,52 11,28 25,13 28,-28 z m 256,26 c 9,-2 12,-18 10,-46 l -3,-43 -57,-3 c -54,-3 -58,-2 -64,23 -9,35 3,73 24,78 17,4 64,-1 90,-9 z m 192,-5 c 0,-5 -20,-9 -45,-9 -43,0 -45,-1 -45,-30 0,-25 4,-30 24,-30 16,0 26,7 29,21 8,29 31,19 35,-15 l 3,-27 -63,3 -63,3 v 45 45 l 55,5 c 59,6 70,4 70,-11 z m 305,1 c 4,-6 -12,-10 -41,-10 -51,0 -51,-9 -1,-26 41,-14 50,-50 14,-59 -36,-9 -100,-2 -105,13 -2,8 10,12 40,13 h 43 l -42,19 c -40,18 -53,37 -36,53 10,11 121,8 128,-3 z m 85,-10 c 0,-15 7,-20 26,-20 17,0 28,6 31,20 8,32 33,24 33,-10 0,-23 -6,-33 -25,-40 -14,-5 -25,-16 -25,-25 0,-22 -21,-18 -27,5 -3,11 -11,20 -19,20 -16,0 -24,12 -30,45 -3,20 0,25 16,25 13,0 20,-7 20,-20 z m 202,-7 28,-27 v 27 c 0,20 5,27 20,27 17,0 20,-7 20,-50 0,-63 -19,-74 -60,-35 l -28,27 -4,-23 c -1,-13 -10,-24 -18,-24 -11,0 -16,14 -18,53 -3,44 0,52 14,52 10,0 31,-12 46,-27 z m 238,17 c 0,-5 -9,-10 -19,-10 -16,0 -20,-8 -23,-42 -2,-30 -8,-43 -18,-43 -10,0 -16,13 -18,43 -3,34 -7,42 -23,42 -10,0 -19,5 -19,10 0,6 27,10 60,10 33,0 60,-4 60,-10 z m 90,-11 c 0,-16 5,-20 28,-17 16,2 27,9 27,18 0,8 8,16 18,18 14,3 17,-5 17,-53 0,-48 -3,-56 -17,-53 -10,2 -18,10 -18,18 0,9 -11,16 -26,18 -20,2 -28,-2 -32,-19 -10,-39 -32,-15 -35,39 -3,47 -1,52 17,52 15,0 21,-6 21,-21 z m 267,9 c -2,-8 -16,-12 -32,-10 -15,2 -35,0 -44,-4 -11,-5 -2,-10 29,-13 25,-3 45,-10 45,-16 0,-5 -20,-12 -45,-14 l -45,-5 45,-5 c 55,-7 59,-25 6,-29 -72,-6 -86,3 -86,52 0,23 3,46 7,49 3,4 33,7 66,7 43,0 57,-3 54,-12 z m 181,0 c -3,-7 -24,-15 -49,-16 l -44,-4 45,-17 c 32,-12 45,-22 45,-36 0,-17 -8,-20 -62,-23 -52,-2 -63,0 -63,13 0,11 11,15 38,16 l 37,1 -37,15 c -35,15 -49,39 -31,56 3,4 33,7 66,7 42,0 58,-3 55,-12 z m 82,-43 c 0,-42 -3,-55 -15,-55 -12,0 -15,13 -15,55 0,42 3,55 15,55 12,0 15,-13 15,-55 z m 178,28 c 3,-18 -4,-24 -40,-35 l -43,-13 45,-5 c 61,-7 53,-24 -13,-28 -86,-5 -105,45 -24,64 l 32,8 -39,6 c -22,3 -41,11 -44,18 -3,10 11,12 59,10 57,-3 64,-5 67,-25 z m 182,12 c 0,-11 -13,-15 -47,-17 l -48,-2 48,-3 c 33,-3 47,-8 47,-19 0,-10 -13,-14 -47,-14 -33,0 -43,-3 -33,-9 8,-6 18,-7 23,-4 12,7 57,-6 57,-17 0,-13 -107,-13 -115,1 -12,18 -13,63 -4,82 13,23 119,25 119,2 z m 168,3 c 16,-16 15,-34 -4,-53 -13,-12 -14,-19 -4,-30 20,-24 -23,-19 -46,6 l -18,20 -8,-20 c -4,-12 -14,-21 -23,-21 -12,0 -15,12 -15,55 v 55 h 53 c 29,0 58,-5 65,-12 z m -3953,-33 c 0,-12 -50,-19 -71,-11 -9,3 -12,11 -9,16 8,14 80,9 80,-5 z m 9458,3 c 8,-24 -5,-38 -33,-38 -16,0 -30,-7 -34,-15 -11,-29 -26,-15 -26,25 v 40 h 44 c 27,0 46,-5 49,-12 z m 107,-13 c 0,-14 -5,-25 -11,-25 -8,0 -8,-5 1,-15 18,-21 -8,-20 -32,1 -16,16 -18,16 -24,0 -11,-29 -24,-17 -24,24 v 40 h 45 c 41,0 45,-2 45,-25 z m 105,16 c -6,-5 -23,-11 -40,-14 -27,-4 -26,-4 8,-6 20,0 37,-5 37,-11 0,-5 -17,-11 -37,-12 l -38,-1 38,-4 c 55,-6 46,-25 -10,-21 -42,3 -48,6 -51,26 -6,42 4,52 55,52 29,0 43,-4 38,-9 z m 115,-1 c 0,-5 -15,-10 -32,-11 l -33,-1 33,-14 c 18,-8 32,-20 29,-27 -5,-15 -97,-22 -97,-8 0,6 12,11 28,11 l 27,1 -27,15 c -28,15 -34,25 -21,37 10,11 93,8 93,-3 z m 100,0 c 0,-5 -15,-11 -32,-11 l -33,-2 30,-4 c 48,-7 54,-23 10,-24 -34,-2 -36,-3 -10,-6 54,-8 54,-24 0,-21 -44,3 -50,6 -53,26 -6,41 5,52 48,52 22,0 40,-4 40,-10 z m 110,0 c 0,-5 -7,-10 -15,-10 -10,0 -15,-10 -15,-30 0,-20 -5,-30 -15,-30 -10,0 -15,10 -15,30 0,20 -5,30 -15,30 -8,0 -15,5 -15,10 0,6 20,10 45,10 25,0 45,-4 45,-10 z m 174,-5 c 5,-13 0,-15 -30,-9 -33,6 -35,5 -32,-17 2,-15 9,-23 18,-20 29,7 39,6 40,-4 0,-5 -20,-11 -45,-13 l -45,-3 v 34 c 0,42 5,47 51,47 24,0 39,-5 43,-15 z m 104,-27 c 3,-30 -1,-38 -18,-43 -12,-4 -32,-4 -46,-1 -19,5 -24,13 -24,40 0,42 6,48 50,44 32,-3 35,-6 38,-40 z m 58,21 18,-20 8,21 c 11,30 28,15 28,-25 0,-44 -16,-53 -44,-26 l -23,22 -6,-21 c -9,-34 -27,-13 -27,31 0,44 16,51 46,18 z m 154,11 c 0,-5 -6,-10 -14,-10 -9,0 -16,-12 -18,-32 -2,-18 -7,-33 -13,-33 -5,0 -11,15 -13,33 -2,20 -9,32 -18,32 -8,0 -14,5 -14,10 0,6 20,10 45,10 25,0 45,-4 45,-10 z m 94,4 c 18,-7 22,-39 6,-49 -5,-3 -7,-12 -3,-20 7,-20 -6,-19 -30,2 -18,17 -19,17 -28,0 -6,-10 -14,-15 -20,-12 -10,7 -12,68 -2,78 8,9 56,9 77,1 z m 102,-2 c 6,-4 14,-19 17,-33 9,-34 -11,-51 -55,-47 -28,3 -34,7 -36,31 -2,16 2,35 9,43 12,15 47,19 65,6 z m 56,-32 c 2,-20 9,-26 36,-28 48,-5 39,-24 -10,-20 l -43,3 -3,45 c -3,47 13,47 20,0 z m -2827,-50 c 9,-42 24,-47 31,-10 7,31 20,47 31,36 4,-3 1,-24 -6,-46 -10,-33 -16,-40 -37,-40 -19,0 -28,8 -40,35 -18,43 -18,55 0,55 8,0 17,-13 21,-30 z m 188,9 c 5,-9 7,-28 3,-42 -6,-25 -11,-27 -56,-27 h -50 v 38 c 0,21 3,42 7,46 13,13 86,2 96,-15 z m 45,-17 c 3,-28 7,-31 40,-34 44,-4 46,-24 2,-22 -73,3 -70,1 -70,50 0,53 23,58 28,6 z m 120,-1 c 3,-27 7,-32 25,-29 17,2 23,11 25,36 2,20 8,32 15,29 11,-3 11,-72 0,-89 -5,-10 -55,-10 -77,-2 -20,8 -23,98 -3,92 6,-3 13,-19 15,-37 z m 215,32 c 3,-5 7,-26 8,-48 3,-30 0,-40 -10,-40 -10,0 -15,11 -15,30 -1,45 -20,46 -24,2 -4,-49 -25,-44 -33,9 -5,39 -15,33 -21,-15 -6,-46 -28,-36 -28,12 0,24 3,47 7,50 9,10 111,9 116,0 z m 127,-3 c 0,-5 -13,-10 -29,-10 -17,0 -33,-4 -36,-10 -4,-6 8,-10 29,-10 20,0 36,-4 36,-10 0,-5 -16,-10 -36,-10 -21,0 -33,-4 -29,-10 3,-5 19,-10 36,-10 16,0 29,-4 29,-10 0,-11 -59,-14 -84,-4 -16,6 -23,73 -9,87 10,11 93,8 93,-3 z m 2214,-91 c 14,-7 35,-27 46,-44 18,-29 20,-50 20,-185 0,-179 -5,-190 -77,-190 h -43 v -300 -299 l -52,-36 c -42,-28 -62,-35 -100,-35 -33,0 -48,4 -48,13 0,9 11,12 33,9 24,-3 47,5 85,29 l 52,32 -2,291 -3,291 -92,3 -93,3 v -204 c 0,-170 -3,-207 -15,-217 -8,-7 -15,-9 -16,-4 0,5 -1,101 -2,214 l -2,205 -92,3 -93,3 v -141 c 0,-127 -2,-140 -17,-140 -16,0 -18,13 -18,137 v 138 l -92,3 -93,3 v -141 c 0,-117 -2,-140 -15,-140 -12,0 -15,24 -17,138 l -3,137 -92,3 -93,3 v -136 c 0,-101 4,-143 15,-165 20,-38 0,-53 -26,-19 -16,21 -19,44 -19,172 v 147 h -95 -95 v -198 -198 l 60,-34 c 33,-19 60,-37 60,-41 0,-22 -25,-16 -82,18 l -63,38 -3,208 -2,207 h -95 -95 v -292 -293 l 44,-27 c 40,-26 51,-28 145,-28 83,0 101,-3 101,-15 0,-12 -18,-15 -105,-15 -104,0 -107,1 -160,35 l -55,35 v 300 300 h -39 c -23,0 -48,8 -62,19 -23,19 -24,23 -24,178 0,173 5,190 58,224 32,21 41,21 738,15 527,-4 712,-8 733,-17 z m -10869,-89 59,-60 h -132 -132 v 60 60 h 73 73 z m 405,0 v -60 h -79 -79 l -4,56 c -1,31 -1,58 1,60 2,2 40,4 83,4 h 78 z m 240,0 v -60 h -80 -80 v 60 60 h 80 80 z m 450,0 v -60 h -85 -85 v 60 60 h 85 85 z m 754,49 c 46,-13 96,-59 96,-88 0,-21 -2,-21 -385,-21 -362,0 -385,1 -385,18 0,29 30,63 74,83 37,17 69,19 301,19 157,0 275,-4 299,-11 z m 711,-11 c 40,-21 64,-49 67,-79 l 3,-24 -140,1 c -77,0 -213,1 -302,2 l -163,2 v 53 c 0,30 3,57 8,61 4,5 117,6 252,4 199,-3 251,-7 275,-20 z m 323,-46 -3,-57 h -80 -80 l -3,49 c -2,27 -1,54 1,60 3,7 32,10 86,8 l 82,-4 z m 442,-2 v -60 h -80 -80 v 60 60 h 80 80 z m 690,0 v -60 l -302,2 c -297,3 -303,3 -300,23 2,11 13,31 25,44 43,47 66,50 330,51 h 247 z m 690,0 v -60 h -305 c -206,0 -305,3 -305,10 0,30 35,73 73,91 38,17 68,19 290,19 h 247 z m 3657,29 c 232,-32 424,-204 474,-427 17,-79 13,-201 -10,-279 -20,-67 -85,-182 -112,-199 -7,-4 0,9 15,29 27,35 53,102 47,122 -2,6 -5,21 -7,35 -1,13 -7,26 -13,28 -5,2 -7,10 -4,18 3,8 1,14 -5,14 -5,0 -13,7 -16,16 -6,15 -4,15 11,3 15,-11 15,-10 -1,9 -26,30 -34,28 -45,-10 -5,-18 -10,-25 -10,-15 -1,10 10,40 24,68 24,46 25,55 15,106 -5,31 -10,59 -10,61 0,2 -23,26 -50,52 -31,30 -53,60 -56,80 -7,34 -48,70 -108,95 -31,13 -44,14 -72,5 -23,-8 -39,-9 -47,-2 -13,11 -68,17 -129,14 l -37,-2 24,-36 c 19,-28 22,-40 14,-50 -19,-23 -46,-16 -59,15 -6,16 -20,31 -30,34 -20,5 -60,-25 -60,-46 -1,-7 -11,-25 -24,-41 l -24,-29 11,36 c 6,19 15,33 19,31 4,-3 8,2 8,10 0,29 -24,17 -77,-40 -56,-59 -66,-79 -33,-69 20,6 28,-9 11,-19 -4,-3 -11,-19 -15,-36 -3,-17 -10,-29 -14,-26 -5,3 -7,-5 -5,-18 3,-15 -1,-25 -10,-29 -16,-6 -16,8 -1,71 3,14 1,21 -5,18 -37,-23 -38,-250 0,-335 10,-24 17,-46 15,-49 -3,-2 1,-17 10,-33 8,-16 15,-32 15,-36 0,-5 7,-15 15,-24 8,-9 11,-20 7,-25 -5,-5 5,2 21,16 l 30,25 -29,-50 c -44,-77 -49,-85 -58,-85 -5,0 -28,16 -52,36 -56,46 -129,152 -157,229 -26,75 -36,224 -18,304 48,221 243,401 465,431 33,4 63,8 67,9 4,0 42,-4 85,-10 z m -58,-203 c 10,-12 8,-17 -10,-26 -22,-13 -38,-1 -39,28 0,17 35,15 49,-2 z m -8349,-11 c 0,-12 -16,-15 -80,-15 -64,0 -80,3 -80,15 0,12 16,15 80,15 64,0 80,-3 80,-15 z m 240,0 c 12,-14 1,-15 -95,-13 -76,2 -110,7 -113,16 -6,20 191,17 208,-3 z m 208,-2 c 3,-10 -17,-13 -77,-13 -66,0 -81,3 -81,15 0,13 13,15 77,13 50,-2 78,-7 81,-15 z m 678,6 c 3,-6 2,-14 -4,-18 -5,-3 -139,-5 -296,-3 -244,2 -286,5 -286,17 0,13 41,15 289,15 202,0 292,-3 297,-11 z m 253,-5 c 1,-1 0,-7 -3,-13 -4,-5 -39,-9 -79,-8 -58,2 -72,5 -75,19 -3,15 5,16 75,11 43,-3 80,-7 82,-9 z m 309,-6 c -3,-9 -29,-13 -83,-13 -54,0 -80,4 -82,13 -4,9 17,12 82,12 65,0 86,-3 83,-12 z m 310,0 c -3,-9 -29,-13 -83,-13 -54,0 -80,4 -82,13 -4,9 17,12 82,12 65,0 86,-3 83,-12 z m 672,-3 c 0,-13 -39,-15 -294,-15 -268,0 -319,4 -299,24 3,3 138,6 300,6 254,0 293,-2 293,-15 z m 700,0 c 0,-13 -41,-15 -305,-15 -264,0 -305,2 -305,15 0,13 41,15 305,15 264,0 305,-2 305,-15 z m 688,-2 c 3,-10 -62,-13 -302,-13 -267,0 -306,2 -306,15 0,13 38,15 302,13 230,-2 302,-6 306,-15 z m 530,2 c 12,-3 22,-10 22,-15 0,-6 -59,-7 -152,-4 -160,5 -198,9 -198,22 0,8 292,5 328,-3 z m 3632,-35 c 10,-19 4,-25 -22,-21 -5,0 -8,-3 -8,-8 0,-5 -17,-26 -37,-46 -21,-20 -50,-48 -65,-63 -20,-19 -28,-22 -28,-12 0,20 9,30 50,61 19,15 46,45 60,68 28,46 35,49 50,21 z m -8220,-15 c 0,-12 -16,-15 -80,-15 -64,0 -80,3 -80,15 0,12 16,15 80,15 64,0 80,-3 80,-15 z m 450,0 c 0,-13 -26,-15 -174,-15 -142,0 -176,3 -186,15 -11,13 9,15 174,15 159,0 186,-2 186,-15 z m 640,0 c -10,-13 -51,-15 -250,-15 -131,0 -245,3 -254,6 -48,19 9,24 250,24 236,0 265,-2 254,-15 z m 290,0 c 0,-12 -16,-15 -80,-15 -64,0 -80,3 -80,15 0,12 16,15 80,15 64,0 80,-3 80,-15 z m 308,-2 c 3,-10 -18,-13 -82,-13 -71,0 -86,3 -86,15 0,13 14,15 82,13 54,-2 83,-7 86,-15 z m 312,2 c 0,-12 -16,-15 -85,-15 -78,0 -96,5 -78,23 3,4 42,7 85,7 63,0 78,-3 78,-15 z m 640,5 c 0,-28 -47,-32 -302,-27 -142,2 -261,7 -264,10 -3,3 -3,10 1,16 8,14 565,15 565,1 z m 518,1 c 181,-1 212,-3 212,-16 0,-13 -40,-15 -299,-15 -189,0 -302,4 -306,10 -14,22 10,29 93,26 48,-2 183,-4 300,-5 z m 902,-16 c 0,-13 -41,-15 -305,-15 -264,0 -305,2 -305,15 0,13 41,15 305,15 264,0 305,-2 305,-15 z m 636,0 c 17,-13 2,-14 -142,-15 -126,0 -164,3 -180,15 -17,13 -2,14 142,15 126,0 164,-3 180,-15 z m 3800,-29 c 199,-93 180,-382 -29,-452 -127,-42 -276,35 -312,161 -35,120 14,237 124,295 53,28 152,26 217,-4 z m -8496,-16 c 0,-18 -7,-20 -80,-20 -60,0 -80,3 -80,13 0,23 11,27 87,27 66,0 73,-2 73,-20 z m 448,-4 c 3,-14 -14,-16 -145,-16 -144,0 -173,6 -173,33 0,4 71,6 158,4 134,-4 157,-7 160,-21 z m 465,-1 c -2,-5 -39,-11 -83,-13 -67,-2 -80,0 -80,13 0,13 13,15 83,13 48,-2 81,-7 80,-13 z m 467,0 c 0,-12 -16,-15 -80,-15 -64,0 -80,3 -80,15 0,12 16,15 80,15 64,0 80,-3 80,-15 z m 310,0 c 0,-12 -16,-15 -85,-15 -69,0 -85,3 -85,15 0,12 16,15 85,15 69,0 85,-3 85,-15 z m 310,0 c 0,-12 -16,-15 -85,-15 -69,0 -85,3 -85,15 0,12 16,15 85,15 69,0 85,-3 85,-15 z m 240,0 c 0,-12 -15,-15 -79,-15 -74,0 -100,7 -84,24 3,3 42,6 85,6 63,0 78,-3 78,-15 z m 685,-5 c 0,-12 -16,-16 -74,-18 -73,-3 -100,6 -86,28 4,7 34,10 83,8 61,-2 77,-6 77,-18 z m 445,0 c 0,-18 -7,-20 -80,-20 -73,0 -80,2 -80,20 0,18 7,20 80,20 73,0 80,-2 80,-20 z m 248,-2 c 3,-16 -6,-18 -82,-18 -65,0 -86,3 -86,13 0,24 13,28 89,25 63,-3 76,-6 79,-20 z m 1122,-3 c 0,-21 -223,-21 -260,0 -23,13 -11,14 118,15 120,0 142,-2 142,-15 z m -4740,-45 c 0,-19 -5,-21 -77,-18 -65,3 -78,6 -81,21 -3,15 6,17 77,17 75,0 81,-2 81,-20 z m 450,0 c 0,-19 -7,-20 -123,-20 -111,0 -126,2 -142,20 -18,20 -17,20 123,20 135,0 142,-1 142,-20 z m 465,0 c 0,-12 -17,-16 -82,-18 -78,-3 -83,-2 -83,18 0,20 5,21 83,18 65,-2 82,-6 82,-18 z m 463,-2 c 3,-16 -6,-18 -77,-18 -75,0 -81,2 -81,20 0,19 5,21 77,18 65,-3 78,-6 81,-20 z m 310,0 c 3,-16 -6,-18 -82,-18 -65,0 -86,3 -86,13 0,24 13,28 89,25 63,-3 76,-6 79,-20 z m 310,-2 c 3,-14 -8,-16 -82,-16 -65,0 -86,3 -86,13 0,22 7,24 88,22 62,-2 78,-5 80,-19 z m 242,-1 c 0,-13 -14,-15 -82,-13 -54,2 -83,7 -86,16 -3,9 18,12 82,12 71,0 86,-3 86,-15 z m 690,0 c 0,-12 -16,-15 -85,-15 -69,0 -85,3 -85,15 0,12 16,15 85,15 69,0 85,-3 85,-15 z m 440,-5 c 0,-19 -5,-21 -77,-18 -65,3 -78,6 -81,21 -3,15 6,17 77,17 75,0 81,-2 81,-20 z m 498,4 c 105,-4 192,-10 192,-15 0,-5 -129,-8 -302,-7 -286,3 -303,4 -306,22 -4,17 3,18 110,12 62,-3 200,-9 306,-12 z m 880,-6 c 3,-17 -16,-18 -302,-18 -197,0 -306,4 -306,10 0,6 71,10 194,10 124,0 197,4 201,10 4,7 46,10 108,8 88,-3 102,-5 105,-20 z m -4748,-42 c 0,-17 -33,-22 -107,-18 -37,3 -53,8 -53,18 0,11 18,14 80,14 63,0 80,-3 80,-14 z m 448,-3 c -3,-15 -17,-18 -94,-21 -79,-2 -94,0 -115,17 l -24,20 118,1 c 108,0 118,-2 115,-17 z m 467,-3 c 0,-12 -16,-15 -80,-15 -69,0 -80,2 -83,18 -3,16 4,18 80,15 66,-2 83,-6 83,-18 z m 465,0 c 0,-18 -7,-20 -80,-20 -73,0 -80,2 -80,20 0,18 7,20 80,20 73,0 80,-2 80,-20 z m 310,0 c 0,-18 -7,-20 -79,-20 -76,0 -100,8 -86,30 3,6 42,10 86,10 72,0 79,-2 79,-20 z m 310,0 c 0,-18 -7,-20 -79,-20 -76,0 -100,8 -86,30 3,6 42,10 86,10 72,0 79,-2 79,-20 z m 238,-2 c 3,-16 -6,-18 -76,-18 -83,0 -94,3 -85,26 4,12 23,14 82,12 63,-3 76,-6 79,-20 z m 690,0 c 3,-16 -6,-18 -82,-18 -65,0 -86,3 -86,13 0,24 13,28 89,25 63,-3 76,-6 79,-20 z m 440,-1 c 3,-15 -7,-17 -77,-17 -61,0 -81,3 -81,13 0,21 4,22 82,22 61,-1 73,-4 76,-18 z m 690,-4 c -3,-17 -23,-18 -288,-15 -228,3 -288,7 -300,18 -12,12 28,14 289,14 283,0 302,-1 299,-17 z m 680,0 c -3,-17 -27,-18 -301,-21 -292,-2 -297,-2 -297,18 0,20 6,20 301,20 281,0 300,-1 297,-17 z m -4738,-43 c 0,-18 -7,-20 -80,-20 -73,0 -80,2 -80,20 0,18 7,20 80,20 73,0 80,-2 80,-20 z m 448,-2 c 3,-16 -5,-18 -70,-18 -67,1 -108,13 -108,34 0,4 39,5 87,4 74,-3 88,-6 91,-20 z m 462,7 c 18,-21 -9,-30 -85,-27 -38,2 -71,5 -74,7 -2,2 -1,11 3,20 4,12 20,15 76,14 43,-1 74,-6 80,-14 z m 468,-12 c -3,-15 -16,-18 -81,-21 -72,-3 -77,-1 -77,18 0,18 6,20 81,20 71,0 80,-2 77,-17 z m 310,0 c -3,-15 -15,-18 -83,-18 -68,0 -80,3 -83,18 -3,15 6,17 83,17 77,0 86,-2 83,-17 z m 310,0 c -3,-15 -15,-18 -83,-18 -68,0 -80,3 -83,18 -3,15 6,17 83,17 77,0 86,-2 83,-17 z m 240,0 c -3,-15 -16,-18 -81,-21 -72,-3 -77,-1 -77,18 0,18 6,20 81,20 71,0 80,-2 77,-17 z m 690,0 c -3,-15 -15,-18 -83,-18 -68,0 -80,3 -83,18 -3,15 6,17 83,17 77,0 86,-2 83,-17 z m 442,-3 c 0,-18 -7,-20 -80,-20 -73,0 -80,2 -80,20 0,18 7,20 80,20 73,0 80,-2 80,-20 z m 688,-2 c 3,-17 -13,-18 -235,-18 -133,0 -254,5 -275,10 -89,25 -45,30 229,28 255,-3 278,-4 281,-20 z m 650,7 c 2,-2 -5,-8 -15,-13 -22,-12 -77,-14 -355,-13 -194,1 -198,1 -198,22 v 21 l 283,-7 c 155,-4 284,-9 285,-10 z m 5432,-69 v -64 l -52,-12 c -64,-13 -78,-1 -78,71 0,46 1,47 38,57 20,5 49,10 65,11 27,1 27,0 27,-63 z m 198,43 c 18,-7 22,-16 22,-49 0,-27 -4,-40 -14,-40 -7,0 -46,-18 -87,-41 -41,-23 -87,-42 -104,-42 -41,-3 -93,-51 -121,-114 -13,-28 -27,-54 -33,-57 -6,-4 -4,6 4,21 8,15 15,43 15,61 0,17 3,32 8,32 4,0 31,24 61,52 30,28 57,46 59,40 4,-14 34,-16 48,-4 5,5 28,14 52,21 48,14 59,36 12,26 l -30,-7 v 62 62 l 43,-7 c 23,-4 52,-11 65,-16 z m -2308,-30 c 0,-14 -16,-11 -29,5 -10,12 -8,13 8,9 12,-3 21,-9 21,-14 z m 1890,-56 c 0,-16 9,-43 20,-61 l 21,-34 -35,-38 -34,-38 -51,29 c -67,38 -67,58 0,121 59,55 79,60 79,21 z m 605,-27 c 60,-56 69,-88 29,-94 -31,-4 -113,90 -106,124 2,13 8,24 12,24 5,0 34,-24 65,-54 z m -2475,4 c 0,-18 -5,-30 -13,-30 -9,0 -12,10 -9,30 2,17 8,30 13,30 5,0 9,-13 9,-30 z m 2060,-25 c 0,-10 -45,-23 -55,-17 -5,4 4,10 20,13 17,4 31,7 33,8 1,0 2,-1 2,-4 z m -2059,-47 c 11,-21 11,-22 -4,-9 -10,7 -17,17 -17,22 0,15 9,10 21,-13 z m 1989,6 c 0,-2 -9,-4 -21,-4 -11,0 -18,4 -14,10 5,8 35,3 35,-6 z m 366,-72 c 172,-89 191,-327 33,-425 -82,-50 -173,-48 -255,6 -85,56 -112,98 -121,192 -5,56 -3,71 21,120 45,91 126,138 227,131 30,-2 73,-13 95,-24 z m -617,-53 c 31,-17 57,-32 59,-34 1,-1 -4,-20 -12,-43 -8,-22 -12,-43 -9,-46 4,-3 -28,-6 -70,-6 -42,0 -77,3 -77,8 -1,24 37,152 44,152 5,0 34,-14 65,-31 z m 875,-26 c 19,-55 21,-99 5,-109 -9,-5 -10,3 -5,30 5,26 1,49 -14,82 -23,52 -24,58 -11,50 5,-4 16,-27 25,-53 z m -639,-143 c 0,-25 -2,-25 -93,-30 -89,-5 -92,-4 -92,17 0,19 7,22 58,28 31,4 62,8 67,10 6,2 21,3 35,2 19,-2 25,-8 25,-27 z m -191,-92 c 4,-24 24,-76 45,-115 21,-40 35,-73 30,-73 -9,0 -6,-7 19,-57 46,-88 67,-115 110,-136 35,-16 35,-17 7,-11 -114,22 -258,140 -313,255 -33,69 -56,154 -47,170 4,5 37,9 74,9 h 69 z m 843,-5 c -3,-10 -5,-4 -5,12 0,17 2,24 5,18 2,-7 2,-21 0,-30 z m -22,-73 c -24,-52 -30,-46 -8,8 9,23 18,40 21,37 3,-3 -3,-23 -13,-45 z m -9342,-158 157,-3 v -24 -25 l -757,-2 -758,-3 -38,-24 c -21,-13 -50,-42 -65,-64 l -27,-40 -3,-264 -3,-263 h 1399 c 998,0 1408,-3 1431,-11 37,-13 65,-60 55,-92 -3,-12 -16,-32 -27,-44 l -20,-23 H 3398 1980 l 2,-1257 3,-1258 -23,-3 c -12,-2 -24,3 -26,10 -3,7 -6,720 -9,1584 -2,1167 0,1584 8,1617 23,91 98,165 188,188 30,7 988,8 1350,1 z m 2781,-18 c 16,-43 4,-44 -420,-44 -260,0 -413,-4 -431,-11 -38,-14 -92,-67 -109,-106 -11,-25 -14,-92 -14,-283 0,-137 1,-250 3,-251 1,0 362,-3 802,-5 745,-5 802,-7 825,-23 41,-29 40,-109 -3,-133 -17,-10 -191,-13 -822,-13 H 5285 V 3950 2695 h -25 -25 l -5,745 c -3,410 -5,1132 -5,1605 v 860 l 22,40 c 28,53 78,99 133,124 43,20 64,21 456,21 371,0 412,-2 418,-16 z m 2664,1 c 9,-3 12,-60 12,-237 0,-224 -1,-232 -22,-255 l -21,-23 h -334 c -318,0 -334,1 -353,20 -26,26 -32,53 -28,130 l 3,65 358,3 358,2 -3,123 -3,122 -670,3 -670,2 -45,-22 c -30,-15 -53,-37 -67,-63 -22,-39 -23,-49 -23,-307 v -268 h 1049 c 741,0 1057,-3 1080,-11 31,-11 61,-52 61,-83 0,-8 -12,-28 -26,-45 l -26,-31 H 8479 c -1062,0 -1069,0 -1069,-20 0,-20 7,-20 768,-21 422,-1 803,-3 847,-4 44,-2 180,-4 301,-4 l 221,-1 27,-26 c 37,-37 36,-97 -1,-136 l -27,-28 H 8477 7408 l 3,-1132 c 4,-1097 3,-1133 -15,-1136 -10,-2 -22,0 -26,5 -5,4 -10,731 -11,1614 l -3,1607 25,48 c 34,66 90,105 166,113 65,7 1351,3 1371,-4 z m 2146,-14 c 3,-4 7,-110 8,-234 l 3,-225 -24,-26 -24,-26 h -253 c -253,0 -253,0 -281,24 -27,23 -28,29 -28,108 v 83 l 284,5 284,5 2,45 c 1,25 0,80 -3,123 l -5,78 -418,-3 c -406,-3 -418,-4 -446,-24 -15,-11 -38,-36 -50,-54 -22,-32 -23,-39 -23,-306 v -274 h 559 559 l 31,-26 c 42,-35 42,-75 0,-116 l -30,-31 -560,5 -559,5 V 3943 2690 h -25 -24 l -3,533 c -2,292 -4,1014 -6,1602 l -2,1070 24,51 c 23,51 68,94 116,113 31,12 887,15 894,2 z M 2298,5917 c 3,-43 1,-48 -24,-57 -27,-11 -73,-8 -93,5 -12,7 -15,88 -4,99 4,4 32,6 63,4 l 55,-3 z m 170,41 c -3,-7 -24,-15 -49,-18 l -44,-5 44,-14 c 81,-27 59,-71 -36,-71 -40,0 -53,4 -53,15 0,11 11,15 41,15 45,0 45,15 -2,25 -32,7 -45,25 -35,50 7,20 140,22 134,3 z m 159,-4 c 9,-23 -12,-40 -31,-25 -23,19 -60,10 -64,-17 -4,-27 23,-40 49,-24 26,17 49,15 49,-3 0,-34 -111,-45 -132,-13 -12,19 -10,72 4,86 19,19 117,16 125,-4 z m 68,-44 c 0,-42 -3,-55 -15,-55 -11,0 -16,14 -18,58 -3,52 -1,58 15,55 15,-3 18,-13 18,-58 z m 67,18 3,-43 48,-3 c 70,-5 56,-27 -17,-27 -66,1 -76,10 -76,73 0,35 3,42 19,42 16,0 20,-8 23,-42 z m 150,0 3,-43 48,-3 c 32,-2 47,-7 44,-15 -5,-16 -76,-21 -110,-8 -24,10 -27,15 -27,61 0,43 3,50 19,50 16,0 20,-8 23,-42 z m 243,-18 c 0,-42 -3,-55 -15,-55 -8,0 -16,10 -18,23 -5,32 -55,28 -60,-5 -2,-13 -10,-23 -18,-23 -10,0 -14,14 -14,53 0,30 3,57 7,61 4,4 32,6 63,4 l 55,-3 z m 165,45 c 0,-9 -9,-15 -24,-15 -22,0 -25,-5 -28,-42 -2,-31 -8,-44 -20,-46 -15,-3 -18,4 -18,42 0,38 -3,45 -22,48 -12,2 -23,9 -26,16 -3,9 15,12 67,12 56,0 71,-3 71,-15 z m 138,3 c 7,-7 12,-29 12,-50 0,-42 -19,-58 -70,-58 -51,0 -70,16 -70,58 0,50 14,62 70,62 25,0 51,-5 58,-12 z m 160,-25 c 2,-19 -1,-33 -7,-33 -6,0 -11,-7 -11,-15 0,-8 5,-15 10,-15 6,0 10,-4 10,-10 0,-17 -36,-11 -55,10 -10,11 -21,20 -25,20 -4,0 -10,-9 -13,-20 -3,-11 -12,-20 -21,-20 -13,0 -16,12 -16,60 v 61 l 63,-3 c 62,-3 62,-3 65,-35 z m 1980,19 c 2,-8 -11,-12 -42,-12 -24,0 -48,-4 -51,-10 -4,-6 14,-10 45,-10 67,0 64,-24 -3,-28 -39,-3 -47,-6 -47,-23 0,-12 -7,-19 -20,-19 -17,0 -20,7 -20,43 0,46 7,61 30,69 27,10 104,2 108,-10 z m 62,-42 c 0,-47 -3,-60 -15,-60 -11,0 -15,13 -15,53 0,30 3,57 7,60 17,17 23,2 23,-53 z m 68,12 3,-41 46,-3 c 26,-2 48,-9 51,-15 5,-17 -109,-18 -126,-1 -13,13 -17,90 -5,102 15,15 28,-3 31,-42 z m 222,27 c 0,-5 -11,-9 -25,-9 -23,0 -25,-4 -25,-45 0,-38 -3,-45 -20,-45 -17,0 -20,7 -20,45 0,41 -2,45 -25,45 -22,0 -32,10 -21,21 8,8 136,-3 136,-12 z m 150,1 c 0,-5 -20,-10 -44,-10 -25,0 -48,-4 -51,-10 -4,-6 14,-10 45,-10 68,0 63,-23 -6,-31 l -49,-5 49,-5 c 74,-6 73,-29 -1,-29 -65,0 -83,11 -83,51 0,53 7,59 76,59 36,0 64,-4 64,-10 z m 148,-23 c 2,-18 -2,-29 -13,-33 -14,-6 -14,-8 1,-25 16,-18 16,-19 -3,-19 -11,0 -28,9 -38,20 -10,11 -22,20 -27,20 -4,0 -8,-9 -8,-20 0,-13 -7,-20 -20,-20 -18,0 -20,7 -20,55 v 56 l 63,-3 c 59,-3 62,-4 65,-31 z m 1505,18 c 1,-5 -20,-12 -48,-14 l -50,-5 48,-5 c 26,-3 47,-10 47,-16 0,-5 -21,-12 -47,-16 -51,-5 -42,-16 17,-21 51,-4 43,-23 -12,-26 -66,-4 -88,10 -88,56 0,21 6,44 12,50 15,15 117,12 121,-3 z m 94,-17 33,-32 v 33 c 0,26 4,32 18,29 13,-2 18,-15 20,-56 4,-69 -15,-78 -64,-31 l -34,33 v -33 c 0,-26 -4,-32 -17,-29 -14,2 -19,15 -21,61 -3,49 0,57 15,57 9,0 32,-14 50,-32 z m 133,-8 c 6,-22 15,-40 20,-40 5,0 14,18 20,40 7,25 17,40 26,40 13,0 15,-7 9,-37 -20,-110 -94,-109 -112,1 -4,29 -2,36 10,36 10,0 20,-15 27,-40 z m 230,25 c 0,-11 -12,-15 -45,-15 -25,0 -45,-4 -45,-10 0,-5 20,-10 45,-10 25,0 45,-4 45,-10 0,-5 -20,-10 -45,-10 -25,0 -45,-4 -45,-10 0,-5 20,-10 45,-10 33,0 45,-4 45,-15 0,-19 -100,-21 -118,-3 -16,16 -16,95 1,101 6,3 36,6 65,6 40,1 52,-2 52,-14 z m 62,-9 c -2,-10 -1,-29 2,-42 6,-21 12,-24 51,-24 33,0 45,-4 45,-15 0,-11 -12,-15 -49,-15 -76,0 -81,4 -81,67 0,47 3,54 18,51 10,-2 16,-11 14,-22 z m 236,12 c 7,-7 12,-28 12,-48 0,-47 -15,-60 -66,-60 -49,0 -74,19 -74,56 0,49 17,64 68,64 27,0 53,-5 60,-12 z m 150,3 c 8,-5 12,-21 10,-37 -3,-26 -7,-29 -44,-32 -32,-2 -43,-8 -47,-23 -3,-10 -12,-19 -21,-19 -13,0 -16,12 -16,60 v 60 h 53 c 28,0 58,-4 65,-9 z m 162,-6 c 0,-11 -12,-15 -45,-15 -25,0 -45,-4 -45,-10 0,-5 20,-10 45,-10 25,0 45,-4 45,-10 0,-5 -20,-10 -45,-10 -25,0 -45,-4 -45,-10 0,-5 20,-10 45,-10 33,0 45,-4 45,-15 0,-11 -13,-15 -53,-15 -62,0 -77,11 -77,60 0,49 15,60 77,60 40,0 53,-4 53,-15 z m 1492,-37 c 3,-43 3,-43 46,-46 63,-5 51,-22 -17,-22 -66,0 -71,5 -71,71 0,32 3,39 19,39 16,0 20,-8 23,-42 z m 246,30 c -2,-6 -22,-12 -43,-12 -21,-1 -40,-7 -42,-13 -3,-9 9,-13 41,-13 25,0 46,-4 46,-10 0,-5 -22,-10 -50,-10 -43,0 -50,-3 -50,-20 0,-11 -7,-20 -15,-20 -11,0 -15,12 -15,48 0,27 3,52 7,55 12,13 125,8 121,-5 z m 138,4 c 15,-10 26,-59 19,-83 -5,-16 -16,-19 -66,-19 h -59 v 48 c 0,27 3,52 7,55 9,9 85,9 99,-1 z m 232,-39 c 3,-38 6,-43 28,-43 16,0 24,-5 22,-12 -3,-9 -26,-13 -68,-13 -42,0 -65,4 -67,13 -3,7 5,12 21,12 22,0 26,4 26,30 0,23 -5,30 -19,30 -22,0 -34,13 -24,24 4,4 23,6 43,4 34,-3 35,-5 38,-45 z m 1049,-182 c 64,-30 94,-104 68,-168 -22,-52 -50,-80 -102,-99 -36,-14 -50,-15 -82,-5 -21,6 -44,18 -51,26 -13,16 0,21 16,6 5,-5 20,-12 34,-15 l 25,-7 -27,15 c -39,23 -68,76 -68,127 0,56 16,87 59,116 41,28 73,29 128,4 z m 904,-44 c 45,-30 71,-82 64,-126 -13,-72 -61,-111 -138,-111 -36,0 -48,5 -73,32 -16,18 -20,25 -8,15 26,-22 41,-22 23,0 -13,15 -12,15 9,4 12,-6 22,-8 21,-4 -3,20 2,27 11,13 8,-13 10,-12 10,4 0,11 3,17 6,14 3,-4 18,7 34,23 19,21 30,26 33,17 4,-8 6,-7 6,4 1,12 6,15 18,11 13,-5 15,-2 10,11 -4,10 -3,15 3,11 14,-9 12,9 -2,23 -7,7 -8,12 -3,12 22,0 -42,50 -70,56 -54,10 -135,-48 -135,-97 0,-11 -4,-19 -10,-19 -31,0 16,81 62,110 43,26 87,25 129,-3 z m -713,-350 c 31,-28 30,-80 -3,-112 l -24,-25 h -236 -236 l -24,25 c -28,27 -34,80 -12,107 28,36 48,38 282,32 215,-5 231,-7 253,-27 z m 627,13 c -23,-6 -25,-8 -8,-9 12,0 25,-6 29,-12 3,-6 14,-9 24,-6 15,4 16,1 7,-30 -11,-34 -22,-34 -29,2 -2,11 -11,21 -20,23 -16,3 -16,0 -4,-35 10,-29 19,-39 39,-41 24,-3 28,1 39,42 8,29 18,46 31,50 10,2 16,9 12,15 -4,7 12,11 46,11 40,0 58,-5 76,-22 32,-30 31,-81 -2,-113 l -24,-25 h -234 c -222,0 -236,1 -261,21 -34,27 -37,88 -4,119 20,18 34,20 167,19 89,-1 134,-4 116,-9 z m -3141,-22 c 16,-53 18,-54 32,-20 17,40 36,34 24,-8 -15,-52 -35,-65 -58,-37 -16,20 -25,77 -12,77 6,0 12,-6 14,-12 z m 150,6 c 9,-3 16,-12 16,-20 0,-16 -5,-17 -29,-5 -23,13 -46,-2 -37,-24 5,-13 13,-15 37,-10 24,6 30,4 27,-6 -3,-9 -20,-14 -44,-14 -37,0 -39,2 -42,34 -5,45 25,63 72,45 z m 104,0 c 18,-5 22,-13 22,-45 0,-22 -4,-39 -10,-39 -5,0 -10,7 -10,15 0,9 -9,15 -25,15 -16,0 -25,-6 -25,-15 0,-8 -4,-15 -10,-15 -5,0 -10,18 -10,39 0,47 17,58 68,45 z m 2682,-214 c 0,-27 3,-30 29,-30 17,0 33,-5 36,-11 5,-7 -9,-9 -42,-7 -48,3 -48,3 -51,41 -2,28 0,37 12,37 11,0 16,-9 16,-30 z m 170,-11 v -40 l -42,3 c -42,3 -43,4 -46,41 l -3,37 h 45 46 z m 110,1 c 0,-22 -4,-40 -10,-40 -5,0 -10,7 -10,15 0,8 -9,15 -19,15 -10,0 -21,-7 -25,-15 -10,-27 -26,-16 -26,18 0,43 5,47 52,47 38,0 38,0 38,-40 z m 115,0 c 0,-35 0,-35 -47,-38 l -48,-3 v 41 41 l 48,-3 c 47,-3 47,-3 47,-38 z m 192,-196 c 13,-8 26,-27 30,-42 4,-15 7,-499 8,-1075 V 2738 l -28,-24 -28,-24 h -814 -813 l -26,31 -26,31 v 1062 1063 l 23,20 c 12,11 29,23 37,26 8,4 375,4 815,1 662,-5 804,-9 822,-20 z M 2199,4795 c 22,-24 41,-48 41,-53 0,-24 -18,-19 -53,15 l -39,38 -33,-40 c -26,-30 -37,-37 -46,-28 -9,9 -1,24 31,62 24,28 46,51 50,51 4,0 26,-20 49,-45 z m 1201,-17 v -37 l -190,-3 -190,-3 v 40 40 h 190 190 z m 376,32 h 174 v -35 -35 h -190 -190 v 41 c 0,33 3,40 16,35 9,-3 94,-6 190,-6 z m 1014,-35 v -33 l -60,-4 -60,-3 v 36 c 0,20 2,38 4,40 2,2 29,2 60,1 l 56,-4 z m -290,0 v -35 h -75 -75 v 35 35 h 75 75 z m 1588,-2 -3,-38 h -187 -188 v 38 37 h 191 190 z m 550,0 -3,-38 -187,-3 -188,-2 v 40 40 h 191 190 z m 1582,-3 v -40 h -190 -190 v 40 40 h 190 190 z m 550,-2 v -38 h -190 -190 v 38 37 h 190 190 z m 550,-3 v -35 h -190 -190 v 38 37 l 190,-3 190,-3 z m 1568,-2 -3,-38 h -185 -185 l -3,23 c -8,52 -6,52 193,52 h 186 z m 286,28 c 3,-5 3,-23 0,-40 -6,-29 -8,-30 -24,-16 -21,19 -30,19 -30,0 0,-8 -4,-15 -10,-15 -5,0 -10,18 -10,40 0,39 1,40 34,40 19,0 37,-4 40,-9 z m 57,-7 c 11,-14 13,-14 21,1 13,22 28,9 28,-25 0,-39 -17,-47 -46,-19 l -24,22 v -21 c 0,-12 -4,-22 -10,-22 -5,0 -10,18 -10,40 0,43 17,53 41,24 z m 134,-24 c 0,-33 -2,-35 -37,-38 l -38,-3 v 41 41 l 38,-3 c 35,-3 37,-5 37,-38 z M 3400,4625 v -34 l -190,-3 -190,-3 v 38 37 h 190 190 z m 550,0 v -35 h -174 c -96,0 -181,-3 -190,-6 -13,-5 -16,2 -16,35 v 41 h 190 190 z m 550,-7 v -38 l -72,3 c -68,2 -73,4 -76,25 -6,42 2,47 77,47 h 71 z m 253,32 c 37,0 38,-1 35,-32 -3,-33 -4,-33 -60,-36 l -58,-3 v 42 c 0,38 2,41 23,35 12,-3 39,-6 60,-6 z m 1337,-35 v -35 h -190 -190 v 38 37 l 190,-3 190,-3 z m 550,0 v -35 h -190 -190 v 38 37 l 190,-3 190,-3 z m 1580,0 v -35 h -190 -190 v 35 35 h 190 190 z m 550,0 v -35 h -190 -190 v 35 35 h 190 190 z m 548,-2 3,-33 h -195 -196 v 28 c 0,16 3,32 7,36 4,3 90,5 192,4 l 186,-3 z m 1572,-8 v -35 h -190 -190 v 35 35 h 190 190 z M 3400,4465 v -35 h -190 -190 v 35 35 h 190 190 z m 550,0 v -35 h -190 -190 v 35 35 h 190 190 z m 550,0 v -36 l -72,3 -73,3 -3,33 -3,32 h 75 76 z m 290,0 v -35 h -60 -60 v 35 35 h 60 60 z m 1148,25 h 152 v -30 -30 h -190 -190 v 36 37 l 38,-7 c 20,-3 106,-6 190,-6 z m 528,0 h 174 v -30 -30 h -190 -190 v 36 c 0,29 3,35 16,30 9,-3 94,-6 190,-6 z m 1754,-30 v -30 h -190 -190 v 30 30 h 190 190 z m 550,0 v -29 l -190,-3 -190,-3 v 33 32 h 190 190 z m 548,-1 -3,-30 -187,-2 c -199,-2 -207,0 -193,44 6,18 20,19 196,19 h 190 z m 1572,-10 v -29 l -187,2 c -172,3 -188,5 -191,21 -8,41 -2,42 192,39 l 186,-3 z m -8472,-41 c -3,-31 -5,-33 -50,-36 -43,-3 -48,-1 -54,22 -9,37 2,46 57,46 h 50 z m 8840,-20 c 5,-54 32,-52 32,2 0,33 3,40 20,40 18,0 20,-7 20,-55 v -55 h -55 -55 v 40 c 0,33 -3,40 -20,40 -17,0 -20,-7 -20,-40 0,-29 -4,-40 -15,-40 -12,0 -15,13 -15,56 v 55 l 53,-3 52,-3 z m -7858,-78 v -30 h -190 -190 v 30 30 h 190 190 z m 550,0 v -30 h -190 -190 v 30 30 h 190 190 z m 555,0 c 0,-24 -2,-25 -77,-28 l -78,-3 v 31 31 l 78,-3 c 75,-3 77,-4 77,-28 z m 285,0 v -30 h -60 -60 v 30 30 h 60 60 z m 1300,0 v -30 h -190 -190 v 30 30 h 190 190 z m 550,0 v -30 h -190 -190 v 30 30 h 190 190 z m 1406,20 h 174 v -25 -24 l -190,-3 -190,-3 v 34 c 0,26 3,32 16,27 9,-3 94,-6 190,-6 z m 724,-25 v -24 l -190,-3 -190,-3 v 30 30 l 190,-3 190,-3 z m 548,-2 -3,-28 -186,-3 -187,-2 -4,25 c -3,13 -3,27 0,30 3,3 90,5 194,5 h 189 z m 1572,-3 v -30 h -190 -190 v 23 c 0,13 3,27 7,30 3,4 89,7 190,7 h 183 z m -5223,-76 c -3,-3 -12,-4 -19,-1 -8,3 -5,6 6,6 11,1 17,-2 13,-5 z m -2267,-69 v -25 h -190 -190 v 28 27 l 190,-3 190,-3 z m 550,0 v -25 h -190 -190 v 28 27 l 190,-3 190,-3 z m 558,3 c -3,-21 -9,-23 -80,-26 -78,-3 -78,-3 -78,23 0,25 1,25 81,25 78,0 80,-1 77,-22 z m 282,-3 c 0,-24 -3,-25 -60,-25 -57,0 -60,1 -60,25 0,24 3,25 60,25 57,0 60,-1 60,-25 z m 1300,0 v -25 h -190 -190 v 25 25 h 190 190 z m 550,0 v -25 h -190 -190 v 25 25 h 190 190 z m 1580,-5 v -30 l -190,2 -190,3 v 28 27 h 190 190 z m 155,-5 c 0,-29 -2,-30 -52,-33 -52,-3 -53,-3 -53,26 0,39 7,43 60,40 43,-3 45,-5 45,-33 z m 395,4 v -30 l -92,1 c -51,1 -134,4 -185,7 -77,5 -92,9 -96,24 -5,17 6,19 171,22 98,1 183,4 190,5 7,1 12,-10 12,-29 z m 376,21 h 174 v -25 -25 h -190 -190 v 31 c 0,24 3,30 16,25 9,-3 94,-6 190,-6 z m 1744,-25 v -25 l -187,2 c -186,3 -188,3 -191,26 l -3,22 h 190 191 z m -5220,-41 v -35 l -47,3 c -46,3 -48,4 -51,36 l -3,32 h 50 51 z m 5410,-46 c 0,-29 0,-29 -52,-26 -49,3 -53,5 -56,30 -3,25 0,27 40,30 60,4 68,0 68,-34 z m -4926,17 c -4,-8 -8,-15 -10,-15 -2,0 -4,7 -4,15 0,8 4,15 10,15 5,0 7,-7 4,-15 z m 5176,-76 c 0,-44 -3,-60 -12,-57 -7,3 -14,17 -16,31 -2,15 -5,27 -8,27 -3,0 -28,-16 -56,-35 -38,-25 -54,-31 -60,-22 -4,6 -4,15 0,18 10,9 146,99 149,99 2,0 3,-27 3,-61 z m -9160,16 c 0,-28 4,-35 20,-35 16,0 20,7 20,35 0,29 4,35 21,35 18,0 20,-5 17,-52 l -3,-53 -52,-3 -53,-3 v 40 c 0,34 -3,41 -20,41 -17,0 -20,-7 -20,-40 0,-29 -4,-40 -15,-40 -12,0 -15,13 -15,55 v 55 h 50 50 z m 1063,5 c 160,0 167,-1 167,-20 0,-19 -7,-20 -190,-20 h -190 v 26 c 0,22 3,25 23,20 12,-3 97,-6 190,-6 z m 550,0 c 160,0 167,-1 167,-20 0,-19 -7,-20 -190,-20 h -190 v 26 c 0,22 3,25 23,20 12,-3 97,-6 190,-6 z m 291,-33 c 7,-29 -1,-35 -54,-39 -40,-2 -45,0 -48,20 -6,40 3,48 51,44 36,-3 46,-8 51,-25 z m 436,13 c 0,-18 -7,-20 -80,-20 -73,0 -80,2 -80,20 0,18 7,20 80,20 73,0 80,-2 80,-20 z m 280,0 c 0,-18 -7,-20 -55,-20 -48,0 -55,2 -55,20 0,18 7,20 55,20 48,0 55,-2 55,-20 z m 1300,0 c 0,-19 -7,-20 -190,-20 -183,0 -190,1 -190,20 0,19 7,20 190,20 183,0 190,-1 190,-20 z m 550,0 c 0,-19 -7,-20 -184,-20 -148,0 -185,3 -189,14 -3,8 -3,17 0,20 4,3 89,6 190,6 176,0 183,-1 183,-20 z m 1580,-5 v -25 h -190 -190 v 25 25 h 190 190 z m 550,-1 v -26 l -187,4 c -164,4 -188,6 -191,21 -4,18 31,22 251,25 l 127,2 z m 550,1 v -25 h -190 -190 v 25 25 h 190 190 z m 1570,-5 c 0,-19 -8,-20 -185,-20 h -185 v 23 22 l 185,-3 c 176,-3 185,-4 185,-22 z m -4650,-25 v -35 h -49 c -44,0 -49,3 -55,25 -10,38 0,45 55,45 h 49 z m -1602,-7 c -3,-32 -4,-33 -53,-33 -40,0 -50,4 -53,18 -7,37 5,47 58,47 h 51 z M 3400,3850 c 0,-18 -9,-19 -190,-22 l -190,-3 v 23 22 h 190 c 182,0 190,-1 190,-20 z m 118,-17 3,-33 h -55 c -55,0 -56,1 -56,28 0,39 7,43 60,40 43,-3 45,-5 48,-35 z m 437,17 c 0,-13 -28,-15 -189,-15 -137,0 -190,3 -193,12 -5,15 42,19 232,18 126,0 150,-2 150,-15 z m 553,-3 c 3,-15 -7,-17 -77,-17 -61,0 -81,3 -81,13 0,21 4,22 82,22 60,-1 73,-4 76,-18 z m 1582,-1 v -23 l -190,1 c -173,1 -190,3 -190,18 0,16 18,18 188,21 103,1 188,3 190,5 1,1 2,-9 2,-22 z m -1300,-1 c 0,-12 -13,-15 -55,-15 -42,0 -55,3 -55,15 0,12 13,15 55,15 42,0 55,-3 55,-15 z m 1848,-2 c -3,-15 -13,-18 -63,-17 -33,1 -117,2 -187,3 -107,1 -128,4 -128,16 0,13 28,15 191,15 176,0 190,-1 187,-17 z m 1587,-3 c 0,-13 -29,-15 -192,-18 -189,-2 -193,-2 -193,18 0,20 4,20 193,18 163,-3 192,-5 192,-18 z m 545,0 c 0,-19 -7,-20 -190,-20 -183,0 -190,1 -190,20 0,19 7,20 190,20 183,0 190,-1 190,-20 z m 550,0 c 0,-19 -7,-20 -185,-20 -178,0 -185,1 -185,20 0,19 7,20 185,20 178,0 185,-1 185,-20 z m 1570,-1 c 0,-18 -9,-19 -185,-19 -179,0 -185,1 -185,20 0,20 5,21 185,20 175,-2 185,-3 185,-21 z m -4141,2 c 21,-13 5,-41 -24,-41 -20,0 -25,5 -25,25 0,26 22,33 49,16 z m 2199,-103 c -3,-32 -5,-33 -50,-36 -43,-3 -48,-1 -54,22 -9,37 2,46 57,46 h 50 z m 1469,-4 c -3,-3 -12,-4 -19,-1 -8,3 -5,6 6,6 11,1 17,-2 13,-5 z m -7012,-33 c 12,-20 -27,-25 -202,-26 -168,0 -183,1 -183,18 0,16 16,17 189,17 107,0 192,-4 196,-9 z m 553,-8 c 3,-10 -40,-13 -192,-13 -180,0 -209,4 -189,24 4,3 90,5 192,4 137,-2 185,-6 189,-15 z m 550,0 c -3,-15 -16,-19 -72,-21 -38,-2 -73,1 -79,7 -20,20 6,31 79,31 66,0 75,-2 72,-17 z m 282,2 c 0,-8 -8,-15 -17,-16 -10,0 -35,-2 -56,-4 -20,-1 -40,1 -43,6 -11,19 10,29 62,29 41,0 54,-4 54,-15 z m 1303,9 c 3,-3 3,-12 0,-20 -4,-11 -41,-14 -194,-14 -182,0 -189,1 -189,20 0,19 7,20 188,20 104,0 191,-3 195,-6 z m 547,-13 c 0,-21 -4,-21 -190,-21 -174,0 -190,1 -190,18 0,15 17,17 190,20 187,3 190,3 190,-17 z m 2133,-6 c -2,-6 -77,-11 -193,-13 -176,-2 -190,-1 -190,15 0,17 13,18 192,13 121,-3 192,-9 191,-15 z m -943,-20 v -35 h -50 c -44,0 -50,3 -56,24 -9,37 2,46 57,46 h 49 z m 398,23 c -4,-10 -48,-14 -169,-16 -167,-3 -209,1 -209,18 0,6 73,10 191,10 148,0 190,-3 187,-12 z m 1092,-3 c 0,-14 -24,-16 -180,-15 -148,1 -180,4 -180,16 0,12 31,14 180,14 155,0 180,-2 180,-15 z m 1570,0 c 0,-12 -31,-15 -185,-17 -171,-3 -185,-2 -185,15 0,16 15,17 185,17 155,0 185,-2 185,-15 z m 378,-73 c 28,-19 52,-41 52,-48 0,-22 -19,-16 -70,20 -51,37 -60,37 -60,-1 0,-14 -6,-23 -15,-23 -12,0 -15,13 -15,61 v 61 l 28,-18 c 15,-9 51,-33 80,-52 z m -4488,-7 v -35 h -50 -50 v 35 35 h 50 50 z m -3380,-70 c 0,-6 -72,-11 -190,-13 -166,-2 -190,0 -190,13 0,13 24,15 190,13 118,-2 190,-7 190,-13 z m 550,0 c 0,-16 -372,-13 -378,3 -3,10 36,12 187,10 119,-2 191,-7 191,-13 z m 553,0 c -4,-16 -145,-13 -151,3 -3,10 14,12 75,10 45,-2 77,-7 76,-13 z m 290,0 c -4,-15 -115,-13 -121,3 -3,10 11,12 59,10 36,-2 63,-7 62,-13 z m 1297,0 c 0,-13 -28,-15 -190,-15 -162,0 -190,2 -190,15 0,13 28,15 190,15 162,0 190,-2 190,-15 z m 550,0 c 0,-13 -28,-15 -190,-15 -162,0 -190,2 -190,15 0,13 28,15 190,15 162,0 190,-2 190,-15 z m 1580,-1 c 0,-11 -35,-14 -185,-14 -113,0 -185,4 -185,10 0,8 70,12 303,16 50,1 67,-2 67,-12 z m 550,-4 c 0,-13 -26,-15 -190,-12 -140,2 -190,6 -190,15 0,9 48,12 190,12 162,0 190,-2 190,-15 z m -5767,-4 c 7,-18 -1,-26 -25,-26 -11,0 -18,7 -18,20 0,23 35,28 43,6 z m 6317,4 c 0,-6 -70,-10 -190,-10 -120,0 -190,4 -190,10 0,6 70,10 190,10 120,0 190,-4 190,-10 z m 1570,0 c 0,-6 -65,-10 -175,-10 -110,0 -175,4 -175,10 0,6 65,10 175,10 110,0 175,-4 175,-10 z m -352,-38 3,-33 -53,3 c -42,2 -54,7 -56,21 -7,38 5,48 55,45 46,-3 48,-4 51,-36 z m -1118,-27 c 0,-16 -27,-31 -47,-27 -37,7 -28,32 12,32 19,0 35,-2 35,-5 z m -6020,-85 c 0,-6 -68,-10 -184,-10 -113,0 -187,4 -191,10 -4,7 60,10 184,10 121,0 191,-4 191,-10 z m 555,0 c -4,-6 -80,-10 -196,-10 -119,0 -189,4 -189,10 0,6 72,10 196,10 127,0 193,-3 189,-10 z m 550,0 c -3,-5 -40,-10 -81,-10 -43,0 -74,4 -74,10 0,6 34,10 81,10 51,0 78,-4 74,-10 z m 290,0 c -3,-5 -33,-10 -66,-10 -33,0 -59,4 -59,10 0,6 29,10 66,10 41,0 63,-4 59,-10 z m 1295,0 c 0,-6 -70,-10 -190,-10 -120,0 -190,4 -190,10 0,6 70,10 190,10 120,0 190,-4 190,-10 z m 550,0 c 0,-6 -70,-10 -190,-10 -120,0 -190,4 -190,10 0,6 70,10 190,10 120,0 190,-4 190,-10 z m 1580,0 c 0,-6 -70,-10 -190,-10 -120,0 -190,4 -190,10 0,6 70,10 190,10 120,0 190,-4 190,-10 z m 550,0 c 0,-6 -70,-10 -190,-10 -120,0 -190,4 -190,10 0,6 70,10 190,10 120,0 190,-4 190,-10 z m 550,0 c 0,-6 -70,-10 -190,-10 -120,0 -190,4 -190,10 0,6 70,10 190,10 120,0 190,-4 190,-10 z m 1570,-10 c 0,-11 -102,-11 -255,0 -93,6 -88,7 78,8 112,1 177,-2 177,-8 z m -7900,-76 v -35 l -52,3 c -42,2 -54,7 -56,21 -7,37 5,47 58,47 h 50 z m -761,-130 c 2,-2 1,-10 -3,-19 -5,-13 -14,-10 -58,20 -29,19 -56,35 -60,35 -5,0 -8,-14 -8,-31 0,-20 -4,-29 -12,-27 -8,3 -14,28 -16,67 l -3,62 78,-52 c 43,-29 80,-53 82,-55 z m 7271,56 c 0,-30 -1,-30 -55,-30 -54,0 -55,0 -55,30 0,30 1,30 55,30 54,0 55,0 55,-30 z m 1799,-21 c 33,-38 41,-53 32,-62 -9,-9 -20,-2 -46,28 l -35,40 -36,-38 c -25,-27 -39,-36 -46,-29 -8,8 2,26 32,61 23,28 45,51 48,51 4,0 27,-23 51,-51 z m -7900,25 c 2,-2 -81,-3 -185,-2 -141,1 -168,3 -104,8 87,6 281,2 289,-6 z m 549,1 c 3,-3 -81,-5 -187,-5 -106,0 -190,3 -188,8 5,8 367,5 375,-3 z m 558,3 c 3,-5 -31,-8 -76,-8 -55,0 -79,3 -75,11 8,12 144,9 151,-3 z m 279,-3 c 6,-2 -16,-4 -47,-4 -32,-1 -58,3 -58,8 0,8 79,5 105,-4 z m 1275,1 c 19,-1 -52,-3 -157,-4 -106,-1 -193,1 -193,6 0,6 269,6 350,-2 z m 520,1 c 36,-2 -22,-4 -128,-5 -106,-1 -191,1 -189,6 5,6 157,6 317,-1 z m 1640,-4 c 0,-9 -369,-7 -378,2 -3,3 81,5 186,5 106,0 192,-3 192,-7 z m 550,0 c 0,-5 -83,-8 -184,-8 -101,0 -188,3 -192,8 -4,4 79,7 184,7 106,0 192,-3 192,-7 z m 545,-4 c -8,-12 -375,-9 -375,4 0,4 86,7 191,7 133,0 188,-3 184,-11 z m 1575,1 c 0,-6 -68,-10 -185,-10 -117,0 -185,4 -185,10 0,6 68,10 185,10 117,0 185,-4 185,-10 z M 2200,2739 c 0,-40 18,-37 22,4 4,42 22,42 26,-1 4,-40 22,-32 22,9 0,40 24,33 28,-8 4,-41 -16,-55 -75,-51 -44,3 -48,5 -51,31 -2,16 -1,35 2,43 9,24 26,6 26,-27 z m 184,35 c 18,-7 23,-84 6,-84 -5,0 -10,7 -10,15 0,9 -9,15 -25,15 -16,0 -25,-6 -25,-16 0,-9 -6,-14 -12,-11 -16,5 -11,69 6,79 14,9 39,10 60,2 z m 56,-23 c 3,-12 10,-22 15,-22 6,0 12,10 15,22 3,12 12,25 19,27 11,4 13,-3 7,-28 -16,-80 -64,-81 -81,-1 -5,25 -4,32 6,29 7,-2 16,-15 19,-27 z m 170,19 c 0,-5 -13,-10 -30,-10 -16,0 -30,-4 -30,-10 0,-5 14,-10 30,-10 41,0 38,-20 -2,-22 l -33,-1 33,-4 c 45,-6 40,-23 -6,-23 -58,0 -82,39 -46,74 17,18 84,22 84,6 z m 410,-31 c 0,-27 3,-29 35,-29 19,0 35,-4 35,-10 0,-14 -74,-12 -88,2 -13,13 -16,60 -6,71 12,12 24,-4 24,-34 z m 415,31 c 4,-6 -9,-10 -32,-11 -37,-1 -37,-1 -13,-12 47,-22 52,-28 39,-43 -13,-15 -89,-20 -89,-5 0,5 12,11 28,13 l 27,4 -27,12 c -27,11 -36,31 -21,45 10,11 81,8 88,-3 z m 35,-14 c 0,-26 24,-51 40,-41 5,3 10,19 10,36 0,16 5,29 10,29 6,0 10,-18 10,-39 0,-44 -20,-58 -66,-47 -20,5 -24,12 -24,46 0,22 5,40 10,40 6,0 10,-11 10,-24 z m 177,-18 c 2,-32 -1,-39 -21,-44 -45,-11 -69,-1 -73,30 -7,48 2,57 49,54 42,-3 43,-4 45,-40 z m 208,22 c 23,-26 35,-25 35,1 0,11 5,17 10,14 14,-9 13,-85 -2,-85 -6,0 -22,10 -35,22 l -23,21 v -21 c 0,-39 -18,-23 -22,19 -5,55 5,64 37,29 z m 160,-30 c 0,-35 0,-35 -45,-35 -42,0 -45,2 -48,30 -5,38 18,55 61,46 29,-6 32,-10 32,-41 z m 43,0 c -5,-49 -28,-51 -28,-2 0,21 3,42 7,46 13,12 24,-12 21,-44 z m 106,28 c -3,-5 -17,-8 -30,-5 -34,6 -30,-6 7,-20 18,-7 29,-18 27,-25 -6,-16 -98,-24 -98,-9 0,6 12,11 28,11 l 27,1 -27,15 c -42,22 -36,42 15,46 49,4 60,1 51,-14 z m 106,12 c 0,-5 -13,-10 -30,-10 -16,0 -30,-4 -30,-10 0,-5 14,-10 30,-10 41,0 38,-20 -2,-22 l -33,-1 33,-4 c 48,-6 39,-25 -10,-21 -42,3 -43,4 -46,40 -3,37 -3,37 40,41 24,2 44,4 46,5 1,1 2,-2 2,-8 z m 200,-31 c 0,-27 3,-29 35,-29 19,0 35,-5 35,-11 0,-6 -19,-9 -47,-7 -44,3 -48,5 -51,31 -2,16 -1,35 2,43 9,24 26,6 26,-27 z m -1648,4 c 2,-23 8,-29 36,-31 46,-5 40,-22 -8,-22 -42,0 -60,18 -60,59 0,32 28,25 32,-6 z m 102,-5 c 6,-33 21,-30 28,6 1,11 9,21 17,24 11,4 12,-2 7,-24 -18,-72 -63,-72 -80,-1 -5,19 -3,27 8,27 7,0 16,-14 20,-32 z m 1722,23 c -3,-4 -16,-6 -30,-4 -13,3 -27,0 -30,-6 -5,-7 4,-11 23,-11 17,0 31,-4 31,-10 0,-5 -14,-10 -30,-10 -18,0 -33,-6 -36,-15 -11,-28 -24,-15 -24,25 v 40 h 51 c 27,0 48,-4 45,-9 z m 102,-28 c -3,-37 -4,-38 -45,-41 -34,-3 -42,0 -48,17 -13,42 3,61 51,61 h 45 z m 822,23 c 0,-9 -11,-13 -32,-12 -23,1 -33,-3 -33,-14 0,-11 9,-14 33,-12 24,2 33,-1 30,-10 -3,-8 -21,-13 -44,-13 -38,0 -39,1 -42,38 l -3,37 h 45 c 33,0 46,-4 46,-14 z m 40,-16 c 0,-23 4,-30 20,-30 16,0 20,7 20,30 0,21 5,30 16,30 12,0 14,-9 12,-37 -3,-36 -5,-38 -42,-41 -43,-4 -56,7 -56,51 0,17 5,27 15,27 10,0 15,-10 15,-30 z m 175,20 c -3,-5 -13,-10 -21,-10 -9,0 -14,-11 -14,-31 0,-36 -23,-35 -28,1 -2,13 -11,30 -20,37 -14,10 -9,12 36,13 33,0 51,-4 47,-10 z m 335,-9 c 0,-11 -5,-23 -10,-26 -8,-5 -7,-11 1,-21 9,-11 8,-14 -4,-14 -8,0 -20,7 -27,15 -16,20 -30,19 -30,-1 0,-32 -25,-6 -28,29 l -3,37 h 50 c 44,0 51,-3 51,-19 z m 105,10 c -6,-5 -23,-11 -40,-14 -27,-4 -26,-4 8,-6 20,0 37,-5 37,-11 0,-5 -17,-11 -37,-12 l -38,-1 38,-4 c 55,-6 46,-25 -10,-21 -42,3 -48,6 -51,26 -6,42 4,52 55,52 29,0 43,-4 38,-9 z m 115,-1 c 0,-5 -15,-10 -32,-10 l -33,-1 33,-14 c 19,-8 32,-20 30,-27 -6,-16 -98,-24 -98,-9 0,6 15,11 33,12 l 32,1 -32,14 c -52,22 -43,44 17,44 28,0 50,-4 50,-10 z m 385,1 c -6,-5 -23,-11 -40,-14 -26,-3 -24,-4 10,-6 44,-1 38,-17 -10,-24 l -30,-4 32,-2 c 17,0 35,-6 38,-12 5,-7 -9,-9 -42,-7 -42,3 -48,6 -51,26 -6,42 4,52 55,52 29,0 43,-4 38,-9 z m 105,-1 c 0,-5 -16,-10 -36,-10 -28,0 -35,-3 -32,-17 4,-23 48,-31 48,-9 0,9 5,16 10,16 6,0 10,-12 10,-26 0,-23 -3,-25 -42,-22 -42,3 -43,4 -46,41 l -3,37 h 45 c 25,0 46,-4 46,-10 z m 980,-20 c 0,-16 0,-33 1,-37 0,-4 -4,-9 -10,-11 -6,-2 -11,3 -11,12 0,20 -39,21 -46,1 -11,-28 -24,-15 -24,25 v 40 h 45 c 43,0 45,-1 45,-30 z m 548,-7 c -3,-37 -4,-38 -45,-41 l -43,-3 v 40 41 h 46 45 z m 552,27 c 0,-5 -15,-10 -32,-11 l -33,-1 33,-14 c 51,-22 42,-44 -19,-44 -52,0 -62,19 -11,21 27,1 27,1 -5,15 -32,14 -40,24 -26,37 10,11 93,8 93,-3 z m 546,-5 c 4,-8 1,-22 -6,-30 -6,-8 -9,-19 -5,-25 9,-15 -7,-12 -33,6 -20,14 -22,14 -22,0 0,-9 -7,-16 -15,-16 -11,0 -15,11 -15,40 v 40 h 45 c 32,0 47,-5 51,-15 z m 869,-27 c 1,-41 -4,-45 -36,-25 -17,10 -23,10 -26,0 -10,-27 -23,-11 -23,28 v 40 l 43,-3 c 41,-3 42,-4 42,-40 z m 113,0 c 2,-29 0,-38 -12,-38 -9,0 -16,7 -16,15 0,8 -9,15 -20,15 -11,0 -20,-7 -20,-15 0,-8 -7,-15 -16,-15 -12,0 -15,6 -10,23 3,12 6,30 6,40 0,15 7,18 43,15 41,-3 42,-4 45,-40 z m 102,32 c 0,-5 -7,-10 -15,-10 -10,0 -15,-10 -15,-30 0,-20 -5,-30 -15,-30 -10,0 -15,10 -15,30 0,20 -5,30 -15,30 -8,0 -15,5 -15,10 0,6 20,10 45,10 25,0 45,-4 45,-10 z m 100,0 c 0,-5 -15,-11 -32,-12 l -33,-1 33,-4 c 41,-5 42,-23 1,-23 -19,0 -28,-4 -23,-11 3,-6 17,-9 30,-6 14,2 27,0 30,-4 3,-5 -18,-9 -45,-9 h -51 v 33 c 0,19 3,37 7,40 10,11 83,8 83,-3 z m 160,-21 c 0,-20 4,-29 12,-27 7,3 13,15 13,28 0,13 6,25 13,27 8,3 12,-6 12,-26 0,-17 5,-31 10,-31 6,0 10,14 10,30 0,21 5,30 16,30 12,0 14,-9 12,-37 l -3,-38 -57,-3 -58,-3 v 41 c 0,22 5,40 10,40 6,0 10,-14 10,-31 z m 194,19 c 15,-49 16,-68 1,-68 -8,0 -15,7 -15,15 0,8 -9,15 -20,15 -11,0 -20,-7 -20,-15 0,-8 -7,-15 -15,-15 -10,0 -15,10 -15,33 0,19 3,37 7,40 11,12 73,7 77,-5 z m 46,-17 c 3,-12 10,-22 15,-22 6,0 12,10 15,22 6,24 30,39 30,18 0,-10 3,-10 12,-1 14,14 88,16 88,2 0,-5 -17,-11 -37,-12 l -38,-1 38,-4 c 48,-5 48,-23 0,-23 -43,0 -34,-16 12,-23 21,-3 16,-4 -17,-6 -45,-1 -48,1 -48,24 0,14 -4,25 -9,25 -5,0 -12,-11 -15,-25 -10,-38 -51,-34 -65,6 -14,41 -14,52 1,47 7,-3 15,-15 18,-27 z m 1320,-411 c 0,-125 -5,-135 -76,-146 -55,-8 -141,1 -160,17 -9,8 -14,33 -14,75 0,84 14,94 127,94 h 83 v 34 c 0,32 15,49 33,39 4,-2 7,-53 7,-113 z m 80,74 v -34 h 83 c 113,0 127,-10 127,-95 0,-81 -12,-90 -126,-90 -118,0 -124,7 -124,146 0,77 4,109 13,112 20,7 27,-2 27,-39 z m -1172,-75 c 4,-138 -2,-144 -130,-144 -82,0 -91,2 -109,24 -13,16 -19,39 -19,71 0,72 27,90 136,90 h 84 v 36 c 0,28 3,35 18,32 15,-3 17,-18 20,-109 z m 152,26 c 0,-8 -9,-15 -19,-15 -44,0 -51,-10 -51,-70 0,-67 -7,-90 -26,-90 -11,0 -14,18 -14,79 0,71 2,82 22,95 29,21 88,21 88,1 z m 243,6 c 44,-17 44,-80 1,-100 -14,-6 -63,-11 -109,-11 -48,0 -85,-4 -85,-10 0,-16 37,-30 79,-30 31,0 41,-4 41,-16 0,-14 -10,-16 -64,-12 -86,5 -96,15 -96,94 0,83 14,94 127,94 45,0 93,-4 106,-9 z m 117,-6 c 0,-16 -55,-22 -64,-6 -8,13 5,21 36,21 18,0 28,-5 28,-15 z m 98,-2 c 2,-9 -8,-13 -32,-13 -26,0 -36,4 -36,16 0,19 61,16 68,-3 z m 172,-3 c 15,-15 20,-33 20,-73 0,-80 -13,-91 -109,-95 -91,-5 -122,1 -145,24 -22,21 -20,50 4,74 17,17 33,20 115,20 52,0 95,4 95,8 0,20 -28,32 -71,32 -45,0 -66,10 -52,24 3,3 33,6 65,6 45,0 63,-5 78,-20 z m 860,7 c 21,-10 26,-21 28,-62 5,-77 -2,-93 -51,-106 -24,-6 -68,-9 -102,-5 -75,7 -95,28 -95,95 0,48 13,74 40,84 30,11 155,6 180,-6 z m 129,-22 48,-35 47,36 c 31,24 53,33 64,29 14,-5 10,-12 -23,-41 -22,-18 -43,-34 -47,-34 -19,0 -5,-21 32,-47 22,-15 40,-36 40,-45 0,-25 -6,-23 -60,17 -26,19 -51,35 -54,35 -4,0 -28,-16 -53,-35 -25,-19 -49,-32 -54,-29 -18,11 -8,30 31,57 22,16 40,31 40,35 -1,4 -21,22 -46,40 -24,18 -42,37 -39,43 10,15 23,11 74,-26 z m -3036,-33 868,-2 -3,-23 -3,-22 -4445,-3 c -2445,-1 -4455,0 -4467,3 -22,5 -31,33 -16,48 6,7 5959,6 8066,-1 z m 1682,-107 c 0,-5 -15,-11 -32,-13 -25,-3 -33,1 -33,13 0,12 8,16 33,13 17,-2 32,-7 32,-13 z m 95,0 c 0,-16 -55,-22 -64,-6 -8,13 5,21 36,21 18,0 28,-5 28,-15 z"
       id="path2" />
    <path
       d="m 2053,7613 c 9,-2 23,-2 30,0 6,3 -1,5 -18,5 -16,0 -22,-2 -12,-5 z"
       id="path4" />
    <path
       d="m 2514,7645 c -8,-21 4,-35 32,-35 19,0 24,5 24,25 0,20 -5,25 -25,25 -14,0 -28,-7 -31,-15 z"
       id="path6" />
    <path
       d="m 3273,7653 c 9,-2 23,-2 30,0 6,3 -1,5 -18,5 -16,0 -22,-2 -12,-5 z"
       id="path8" />
    <path
       d="m 3615,7650 c 3,-5 12,-10 20,-10 8,0 17,5 20,10 4,6 -5,10 -20,10 -15,0 -24,-4 -20,-10 z"
       id="path10" />
    <path
       d="m 3964,7645 c -9,-23 3,-45 26,-45 16,0 20,7 20,30 0,23 -4,30 -20,30 -11,0 -23,-7 -26,-15 z"
       id="path12" />
    <path
       d="m 6125,7640 c 3,-5 17,-10 31,-10 13,0 24,5 24,10 0,6 -14,10 -31,10 -17,0 -28,-4 -24,-10 z"
       id="path14" />
    <path
       d="m 11658,7623 c 6,-2 18,-2 25,0 6,3 1,5 -13,5 -14,0 -19,-2 -12,-5 z"
       id="path16" />
    <path
       d="m 11758,7623 c 6,-2 18,-2 25,0 6,3 1,5 -13,5 -14,0 -19,-2 -12,-5 z"
       id="path18" />
    <path
       d="m 12463,7614 c -8,-22 18,-37 36,-20 7,8 10,19 7,25 -10,16 -36,13 -43,-5 z"
       id="path20" />
    <path
       d="m 12780,7620 c 0,-5 9,-10 20,-10 11,0 20,5 20,10 0,6 -9,10 -20,10 -11,0 -20,-4 -20,-10 z"
       id="path22" />
    <path
       d="m 12897,7624 c -15,-15 -7,-45 11,-42 9,2 17,12 17,22 0,20 -16,31 -28,20 z"
       id="path24" />
    <path
       d="m 10287,7564 c -4,-4 -7,-16 -7,-26 0,-14 6,-19 23,-16 14,2 22,10 22,23 0,20 -25,32 -38,19 z"
       id="path26" />
    <path
       d="m 11657,7433 c -4,-3 -7,-20 -7,-37 1,-28 2,-29 14,-13 16,21 36,22 36,1 0,-8 5,-12 10,-9 16,10 12,52 -6,59 -20,8 -39,8 -47,-1 z m 40,-19 c -3,-3 -12,-4 -19,-1 -8,3 -5,6 6,6 11,1 17,-2 13,-5 z"
       id="path28" />
    <path
       d="m 11870,7399 c 0,-28 2,-30 32,-27 28,3 33,7 35,31 2,25 -1,27 -33,27 -31,0 -34,-2 -34,-31 z m 47,15 c -3,-3 -12,-4 -19,-1 -8,3 -5,6 6,6 11,1 17,-2 13,-5 z m 0,-20 c -3,-3 -12,-4 -19,-1 -8,3 -5,6 6,6 11,1 17,-2 13,-5 z"
       id="path30" />
    <path
       d="m 12090,7400 c 0,-28 3,-30 36,-30 21,0 33,4 29,10 -3,6 -15,10 -26,10 -30,0 -23,28 9,33 22,3 20,4 -10,6 -36,1 -38,-1 -38,-29 z"
       id="path32" />
    <path
       d="m 12310,7400 c 0,-29 2,-31 33,-28 27,2 32,7 32,28 0,21 -5,26 -32,28 -31,3 -33,1 -33,-28 z m 48,3 c -5,-25 -28,-28 -28,-4 0,12 6,21 16,21 9,0 14,-7 12,-17 z"
       id="path34" />
    <path
       d="m 12524,7415 c -11,-28 4,-45 38,-44 31,1 32,1 8,9 -24,8 -24,8 -2,9 12,1 22,6 22,11 0,6 -10,10 -22,11 -22,1 -22,1 2,9 24,8 23,8 -8,9 -20,1 -35,-5 -38,-14 z"
       id="path36" />
    <path
       d="m 12749,7423 c 0,-5 -2,-16 -4,-25 -2,-10 1,-20 6,-24 5,-3 9,0 9,5 0,6 11,11 25,11 31,0 33,20 3,21 -19,1 -17,3 7,9 30,8 30,8 -7,9 -21,0 -38,-2 -39,-6 z"
       id="path38" />
    <path
       d="m 12964,7415 c -11,-28 4,-45 41,-45 24,0 35,4 35,15 0,18 -12,19 -27,4 -6,-6 -16,-8 -22,-5 -18,11 -13,26 8,26 11,0 23,5 26,10 4,6 -7,10 -25,10 -18,0 -33,-6 -36,-15 z"
       id="path40" />
    <path
       d="m 11582,7214 3,-99 745,-7 c 410,-5 751,-6 758,-3 8,3 12,33 12,100 v 95 h -332 c -183,0 -526,3 -761,7 l -428,6 z m 108,11 c 0,-16 6,-25 16,-25 8,0 12,-4 9,-10 -3,-5 -19,-10 -36,-10 -16,0 -29,5 -29,10 0,6 5,10 10,10 6,0 10,7 10,15 0,8 -4,15 -10,15 -5,0 -10,5 -10,10 0,6 9,10 20,10 15,0 20,-7 20,-25 z m 243,16 c 16,-2 6,-22 -15,-31 l -23,-9 h 23 c 37,-1 25,-21 -13,-21 -41,0 -49,25 -12,40 l 22,9 h -22 c -13,1 -23,6 -23,11 0,6 12,9 28,6 15,-2 30,-5 35,-5 z m 225,-28 c -2,-23 -8,-29 -35,-31 -19,-2 -33,1 -33,7 0,6 10,11 23,12 21,1 21,1 -3,9 l -25,8 25,2 25,2 -25,8 c -22,7 -21,8 13,9 36,1 38,-1 35,-26 z m 172,17 c 0,-5 7,-10 15,-10 8,0 15,5 15,10 0,6 5,10 10,10 6,0 10,-13 10,-30 0,-16 -4,-30 -10,-30 -5,0 -10,5 -10,10 0,6 -11,10 -25,10 -18,0 -25,5 -25,20 0,11 5,20 10,20 6,0 10,-4 10,-10 z m 253,3 c -29,-6 -30,-19 -2,-26 33,-9 12,-27 -29,-26 -32,1 -34,2 -12,8 l 25,7 -22,12 c -36,20 -27,32 20,31 23,-1 32,-4 20,-6 z m 212,-2 -30,-7 28,-7 c 33,-9 31,-30 -2,-35 -36,-6 -49,4 -44,32 5,23 10,26 42,25 36,-1 36,-1 6,-8 z m 240,0 c 7,-13 -34,-51 -54,-51 -11,0 -9,6 9,20 25,19 25,20 3,20 -12,0 -25,5 -28,10 -4,6 8,10 29,10 19,0 37,-4 41,-9 z"
       id="path42" />
    <path
       d="m 10596,7034 c -4,-9 -4,-19 -1,-22 2,-3 7,3 11,12 4,9 4,19 1,22 -2,3 -7,-3 -11,-12 z"
       id="path44" />
    <path
       d="m 10645,6970 c -3,-5 -1,-10 4,-10 6,0 11,5 11,10 0,6 -2,10 -4,10 -3,0 -8,-4 -11,-10 z"
       id="path46" />
    <path
       d="m 10430,6809 c 0,-6 -9,-8 -22,-3 -23,7 -23,6 -4,-15 20,-22 32,-28 21,-11 -3,6 1,13 9,16 18,7 22,24 6,24 -5,0 -10,-5 -10,-11 z"
       id="path48" />
    <path
       d="m 10360,6767 c 0,-8 11,-24 25,-37 21,-19 25,-21 25,-7 0,9 -7,17 -15,17 -14,0 -19,12 -16,33 0,4 -3,7 -9,7 -5,0 -10,-6 -10,-13 z"
       id="path50" />
    <path
       d="m 10455,6720 c -3,-5 -1,-10 4,-10 6,0 11,5 11,10 0,6 -2,10 -4,10 -3,0 -8,-4 -11,-10 z"
       id="path52" />
    <path
       d="m 10521,6714 c 0,-11 3,-14 6,-6 3,7 2,16 -1,19 -3,4 -6,-2 -5,-13 z"
       id="path54" />
    <path
       d="m 10455,6690 c 3,-5 8,-10 11,-10 2,0 4,5 4,10 0,6 -5,10 -11,10 -5,0 -7,-4 -4,-10 z"
       id="path56" />
    <path
       d="m 12573,6588 c 2,-7 10,-12 16,-10 6,1 11,-3 11,-9 0,-5 5,-7 11,-4 6,5 4,12 -8,21 -23,17 -36,18 -30,2 z"
       id="path58" />
    <path
       d="m 12545,6545 c -5,-11 -23,-39 -42,-62 -35,-44 -39,-53 -23,-53 6,0 16,11 22,25 6,14 22,28 34,31 16,4 21,11 17,22 -4,10 -2,13 5,8 14,-8 14,0 2,29 l -8,20 z"
       id="path60" />
    <path
       d="m 12407,6377 c -29,-26 -35,-35 -25,-45 9,-9 9,-12 -1,-12 -7,0 -9,-5 -6,-11 5,-7 13,-4 24,8 20,23 53,84 48,89 -2,2 -20,-11 -40,-29 z"
       id="path62" />
    <path
       d="m 12325,6289 c -8,-12 24,-51 36,-43 5,3 9,16 9,30 0,17 -5,24 -19,24 -11,0 -23,-5 -26,-11 z"
       id="path64" />
    <path
       d="m 2270,5301 c 0,-41 13,-55 24,-26 3,9 18,15 36,15 27,0 31,3 28,23 -2,18 -10,23 -45,25 l -43,3 z m 65,9 c -3,-5 -12,-10 -20,-10 -8,0 -17,5 -20,10 -4,6 5,10 20,10 15,0 24,-4 20,-10 z"
       id="path66" />
    <path
       d="m 2384,5326 c -3,-8 -4,-25 -2,-38 3,-21 9,-23 61,-26 l 57,-3 v 41 c 0,48 -17,54 -22,8 -2,-18 -7,-33 -13,-33 -5,0 -11,15 -13,33 -4,40 -22,42 -22,2 0,-16 -4,-30 -10,-30 -5,0 -10,11 -10,24 0,29 -18,44 -26,22 z"
       id="path68" />
    <path
       d="m 2787,5333 c -4,-3 -7,-21 -7,-40 0,-33 1,-33 45,-33 38,0 45,3 45,20 0,24 -9,26 -25,3 -16,-21 -45,-10 -45,17 0,16 6,20 35,20 19,0 35,5 35,10 0,11 -73,14 -83,3 z"
       id="path70" />
    <path
       d="m 2890,5300 v -40 l 48,1 c 44,2 45,2 12,8 -31,5 -35,10 -38,39 -5,46 -22,40 -22,-8 z"
       id="path72" />
    <path
       d="m 3007,5333 c -4,-3 -7,-22 -7,-40 v -34 l 48,3 c 40,3 47,6 50,26 2,13 -2,30 -8,38 -13,14 -71,20 -83,7 z m 61,-35 c -5,-34 -38,-37 -38,-4 0,20 5,26 21,26 15,0 20,-5 17,-22 z"
       id="path74" />
    <path
       d="m 3330,5301 v -41 h 46 45 l -3,38 c -3,36 -4,37 -45,40 l -43,3 z m 68,-3 c -2,-15 -10,-23 -23,-23 -13,0 -21,8 -23,23 -3,18 1,22 23,22 22,0 26,-4 23,-22 z"
       id="path76" />
    <path
       d="m 3440,5330 c 0,-5 7,-10 15,-10 10,0 15,-10 15,-30 0,-21 5,-30 16,-30 12,0 15,7 11,26 -3,20 0,28 14,31 35,10 19,23 -26,23 -25,0 -45,-4 -45,-10 z"
       id="path78" />
    <path
       d="m 3550,5300 c 0,-22 5,-40 10,-40 6,0 10,10 10,22 v 21 l 23,-21 c 34,-33 47,-28 47,18 0,22 -4,40 -10,40 -5,0 -10,-9 -10,-20 0,-11 -2,-20 -5,-20 -3,0 -15,9 -27,20 -31,29 -38,25 -38,-20 z"
       id="path80" />
    <path
       d="m 3777,5334 c -4,-4 -7,-22 -7,-41 0,-33 1,-33 45,-33 33,0 45,4 45,15 0,18 -12,19 -27,4 -17,-17 -43,-3 -43,22 0,19 4,21 36,14 28,-5 35,-3 32,7 -5,14 -69,24 -81,12 z"
       id="path82" />
    <path
       d="m 3880,5300 c 0,-40 13,-53 24,-25 3,8 15,15 26,15 11,0 20,-7 20,-15 0,-8 5,-15 10,-15 6,0 10,18 10,40 0,22 -4,40 -10,40 -5,0 -10,-7 -10,-15 0,-9 -9,-15 -25,-15 -16,0 -25,6 -25,15 0,8 -4,15 -10,15 -5,0 -10,-18 -10,-40 z"
       id="path84" />
    <path
       d="m 4002,5331 c -8,-4 -12,-21 -10,-37 3,-29 34,-45 70,-36 19,5 29,43 16,66 -10,17 -54,21 -76,7 z m 56,-33 c -4,-27 -33,-36 -42,-13 -8,22 1,35 25,35 15,0 20,-6 17,-22 z"
       id="path86" />
    <path
       d="m 4107,5333 c -10,-10 -8,-71 2,-78 6,-3 14,2 19,11 8,15 12,15 38,-2 27,-19 28,-19 21,0 -4,10 -2,25 4,32 17,21 -7,44 -46,44 -17,0 -35,-3 -38,-7 z m 63,-23 c 0,-5 -9,-10 -20,-10 -11,0 -20,5 -20,10 0,6 9,10 20,10 11,0 20,-4 20,-10 z"
       id="path88" />
    <path
       d="m 4219,5335 c -3,-2 -3,-20 -1,-39 4,-37 30,-50 70,-35 27,10 31,63 6,73 -19,7 -69,8 -75,1 z m 65,-24 c 10,-16 -5,-41 -25,-41 -14,0 -19,7 -19,25 0,18 5,25 19,25 11,0 22,-4 25,-9 z"
       id="path90" />
    <path
       d="m 4503,5333 c -19,-7 -16,-70 3,-77 25,-10 74,-7 74,4 0,6 -13,10 -30,10 -40,0 -38,18 3,23 l 32,4 -32,1 c -41,2 -44,22 -3,22 17,0 30,5 30,10 0,10 -55,13 -77,3 z"
       id="path92" />
    <path
       d="m 4613,5333 c -18,-7 -16,-58 1,-72 8,-7 30,-11 48,-9 25,2 33,8 33,22 0,11 -6,21 -12,24 -7,2 -13,-3 -13,-12 0,-23 -37,-20 -43,3 -6,26 0,31 40,31 20,0 32,4 28,10 -6,10 -60,12 -82,3 z"
       id="path94" />
    <path
       d="m 5735,5331 c -38,-6 -40,-8 -43,-43 -3,-39 12,-53 20,-20 4,15 12,18 37,14 19,-2 31,0 31,7 0,6 -13,11 -30,11 -16,0 -30,5 -30,10 0,6 14,10 30,10 17,0 30,5 30,10 0,6 -1,9 -2,9 -2,-1 -21,-5 -43,-8 z"
       id="path96" />
    <path
       d="m 5470,5290 c 0,-41 14,-54 22,-22 3,10 13,19 23,19 10,0 20,-9 23,-19 8,-32 22,-19 22,22 0,40 -13,53 -24,25 -3,-8 -15,-15 -26,-15 -11,0 -20,7 -20,15 0,8 -4,15 -10,15 -5,0 -10,-18 -10,-40 z"
       id="path98" />
    <path
       d="m 5580,5290 c 0,-22 5,-40 10,-40 6,0 10,6 10,14 0,9 12,16 33,18 24,2 33,8 35,26 3,20 -1,22 -42,22 h -46 z m 65,20 c 4,-6 -5,-10 -20,-10 -15,0 -24,4 -20,10 3,6 12,10 20,10 8,0 17,-4 20,-10 z"
       id="path100" />
    <path
       d="m 5918,5320 c 16,-7 22,-18 22,-40 0,-16 5,-30 10,-30 6,0 10,14 10,30 0,22 6,33 23,40 17,7 10,9 -33,9 -43,0 -50,-2 -32,-9 z"
       id="path102" />
    <path
       d="m 6020,5290 c 0,-22 5,-40 10,-40 6,0 10,7 10,15 0,8 4,15 9,15 5,0 14,-7 21,-15 16,-19 34,-19 27,0 -4,8 -2,17 3,20 6,4 10,15 10,26 0,16 -7,19 -45,19 h -45 z m 60,20 c 0,-5 -9,-10 -21,-10 -11,0 -17,5 -14,10 3,6 13,10 21,10 8,0 14,-4 14,-10 z"
       id="path104" />
    <path
       d="m 6130,5290 c 0,-22 5,-40 10,-40 6,0 10,7 10,15 0,9 9,15 25,15 16,0 25,-6 25,-15 0,-8 5,-15 10,-15 6,0 10,18 10,40 v 40 h -45 -45 z m 65,20 c 4,-6 -5,-10 -20,-10 -15,0 -24,4 -20,10 3,6 12,10 20,10 8,0 17,-4 20,-10 z"
       id="path106" />
    <path
       d="m 6242,5293 c 3,-37 4,-38 42,-38 22,0 41,5 43,12 3,7 -8,11 -29,10 -23,-2 -33,3 -36,14 -4,20 27,34 42,19 14,-14 26,-12 26,5 0,11 -12,15 -46,15 h -45 z"
       id="path108" />
    <path
       d="m 6350,5290 c 0,-40 15,-54 26,-25 8,20 24,19 40,-2 7,-10 16,-15 20,-11 4,4 1,14 -5,22 -9,11 -10,20 -1,35 12,24 -2,28 -20,6 -7,-8 -16,-15 -21,-15 -5,0 -9,7 -9,15 0,8 -7,15 -15,15 -11,0 -15,-11 -15,-40 z"
       id="path110" />
    <path
       d="m 6572,5293 c 3,-37 4,-38 46,-41 25,-2 42,1 42,7 0,6 -16,11 -35,11 -32,0 -35,2 -35,30 0,17 -5,30 -11,30 -6,0 -9,-16 -7,-37 z"
       id="path112" />
    <path
       d="m 6680,5290 c 0,-22 5,-40 10,-40 6,0 10,7 10,15 0,10 11,15 35,15 19,0 35,5 35,10 0,6 -17,10 -37,10 -25,0 -33,3 -24,9 7,5 21,6 31,4 10,-3 21,0 24,6 5,7 -8,11 -38,11 h -46 z"
       id="path114" />
    <path
       d="m 6794,5316 c -3,-8 -4,-25 -2,-38 3,-20 9,-23 43,-23 39,0 40,1 43,38 l 3,37 h -41 c -26,0 -43,-5 -46,-14 z m 66,-27 c 0,-15 -5,-20 -22,-17 -34,5 -37,38 -4,38 20,0 26,-5 26,-21 z"
       id="path116" />
    <path
       d="m 8190,5691 c 0,-119 -23,-112 365,-109 l 330,3 v 85 85 l -347,3 -348,2 z m 124,23 c 18,-7 22,-39 6,-49 -8,-5 -7,-11 1,-21 9,-11 8,-14 -4,-14 -8,0 -20,7 -28,16 -11,14 -13,14 -21,0 -5,-9 -13,-16 -18,-16 -11,0 -14,73 -3,83 8,9 46,9 67,1 z m 116,-4 c 0,-5 -11,-10 -24,-10 -14,0 -28,-4 -31,-10 -4,-6 7,-10 24,-10 41,0 40,-20 -1,-22 l -33,-1 33,-4 c 45,-6 40,-23 -7,-23 -26,0 -41,5 -45,16 -11,28 -6,53 12,63 22,13 72,14 72,1 z m 50,-37 c 0,-25 18,-13 24,17 3,17 10,30 16,30 13,0 13,-19 -1,-59 -20,-57 -70,-27 -69,42 1,22 1,22 15,3 8,-11 15,-26 15,-33 z m 142,32 c -2,-5 -11,-9 -22,-7 -10,2 -21,-2 -25,-8 -4,-6 6,-10 24,-10 41,0 40,-20 -1,-22 l -33,-1 33,-4 c 48,-6 39,-25 -10,-21 -41,3 -43,5 -46,37 -2,20 2,37 10,43 17,11 74,6 70,-7 z m 106,-36 c -3,-39 -23,-53 -34,-24 -8,20 -24,19 -24,-1 0,-27 -25,-9 -28,20 -5,45 2,52 47,48 41,-4 41,-4 39,-43 z m 107,1 c 0,-34 -1,-35 -42,-38 l -43,-3 v 41 41 l 43,-3 c 41,-3 42,-4 42,-38 z"
       id="path118" />
    <path
       d="m 8270,5690 c 0,-5 7,-10 15,-10 8,0 15,5 15,10 0,6 -7,10 -15,10 -8,0 -15,-4 -15,-10 z"
       id="path120" />
    <path
       d="m 8675,5690 c -4,-6 3,-10 14,-10 25,0 27,6 6,13 -8,4 -17,2 -20,-3 z"
       id="path122" />
    <path
       d="m 8788,5683 c 7,-3 16,-2 19,1 4,3 -2,6 -13,5 -11,0 -14,-3 -6,-6 z"
       id="path124" />
    <path
       d="m 8788,5653 c 7,-3 16,-2 19,1 4,3 -2,6 -13,5 -11,0 -14,-3 -6,-6 z"
       id="path126" />
    <path
       d="m 7717,5323 c -4,-3 -7,-21 -7,-40 0,-23 5,-33 15,-33 8,0 15,7 15,15 0,8 9,15 20,15 11,0 20,-7 20,-15 0,-8 5,-15 10,-15 16,0 23,27 16,55 -5,21 -12,25 -45,25 -21,0 -41,-3 -44,-7 z m 56,-20 c -7,-2 -19,-2 -25,0 -7,3 -2,5 12,5 14,0 19,-2 13,-5 z"
       id="path128" />
    <path
       d="m 8260,5291 v -41 h 46 45 l -3,38 c -3,36 -4,37 -45,40 l -43,3 z m 68,-3 c -2,-15 -10,-23 -23,-23 -13,0 -21,8 -23,23 -3,18 1,22 23,22 22,0 26,-4 23,-22 z"
       id="path130" />
    <path
       d="m 8817,5323 c -15,-15 -5,-32 26,-44 l 32,-12 -35,-7 c -39,-8 -36,-12 10,-12 47,0 50,1 50,16 0,8 -15,20 -32,27 l -33,13 33,3 c 17,3 32,8 32,14 0,10 -73,13 -83,2 z"
       id="path132" />
    <path
       d="m 9360,5283 c 1,-44 2,-46 15,-29 14,18 16,18 33,3 23,-21 36,-22 29,-2 -4,8 -2,17 3,20 6,4 10,14 10,24 0,19 -26,31 -67,31 -21,0 -23,-5 -23,-47 z m 60,17 c 0,-5 -9,-10 -20,-10 -11,0 -20,5 -20,10 0,6 9,10 20,10 11,0 20,-4 20,-10 z"
       id="path134" />
    <path
       d="m 7412,5063 3,-78 1059,-3 1060,-2 23,22 c 27,25 30,73 7,103 -14,19 -30,20 -357,25 -188,3 -670,7 -1070,8 l -728,2 z m 298,2 c 0,-25 -4,-45 -10,-45 -11,0 -14,73 -3,83 11,12 13,8 13,-38 z m -40,25 c 0,-5 -15,-10 -32,-11 l -33,-1 33,-10 c 21,-7 32,-17 32,-29 0,-16 -8,-19 -50,-19 -54,0 -71,19 -17,21 l 32,1 -32,14 c -32,14 -40,24 -26,37 10,11 93,8 93,-3 z m 160,-5 c 0,-8 -15,-21 -32,-29 l -33,-14 33,-1 c 17,-1 32,-6 32,-12 0,-6 -19,-9 -47,-7 -57,4 -72,30 -26,46 l 28,10 -27,1 c -50,2 -29,21 22,21 38,0 50,-4 50,-15 z m 110,5 c 0,-5 -15,-11 -32,-12 l -33,-1 33,-4 c 17,-2 32,-8 32,-14 0,-5 -15,-10 -32,-11 l -33,-1 33,-4 c 47,-6 39,-23 -12,-23 -47,0 -60,17 -49,60 4,16 14,20 49,20 24,0 44,-4 44,-10 z m 300,-30 v -40 h -45 -45 v 40 40 h 45 45 z m 115,31 c -6,-5 -23,-11 -40,-14 -26,-3 -24,-4 10,-6 44,-1 38,-17 -10,-24 l -30,-4 32,-2 c 17,0 35,-6 38,-12 5,-7 -9,-9 -42,-7 -42,3 -48,6 -51,26 -6,42 4,52 55,52 29,0 43,-4 38,-9 z m 113,-9 c 3,-10 -4,-12 -32,-7 -33,7 -36,5 -36,-15 0,-20 3,-22 36,-15 28,5 35,3 32,-7 -3,-8 -21,-13 -49,-13 -38,0 -44,3 -47,23 -6,43 4,53 50,50 23,-2 43,-9 46,-16 z m 312,8 c 0,-5 -15,-11 -32,-12 l -33,-1 33,-4 c 43,-6 41,-23 -3,-23 -24,0 -35,-5 -35,-15 0,-8 -7,-15 -15,-15 -16,0 -20,35 -9,64 7,18 94,23 94,6 z m 40,-30 c 0,-22 -4,-40 -10,-40 -5,0 -10,18 -10,40 0,22 5,40 10,40 6,0 10,-18 10,-40 z m 42,13 c 2,-23 8,-29 36,-31 48,-5 39,-22 -13,-22 h -45 v 40 c 0,45 17,55 22,13 z m 158,17 c 0,-5 -9,-10 -20,-10 -16,0 -20,-7 -20,-30 0,-16 -4,-30 -10,-30 -5,0 -10,12 -10,26 0,17 -6,28 -20,31 -37,10 -20,23 30,23 28,0 50,-4 50,-10 z m 364,-7 c 7,-27 2,-63 -9,-64 -5,0 -11,8 -13,18 -7,41 -16,47 -21,15 -8,-43 -25,-46 -29,-4 -2,17 -7,32 -12,32 -5,0 -10,-15 -12,-32 -4,-39 -22,-40 -26,-2 -6,46 3,54 62,54 43,0 56,-4 60,-17 z m 44,-25 c -3,-47 -21,-55 -26,-12 -4,31 4,54 18,54 7,0 10,-17 8,-42 z m 49,27 c 5,-14 8,-14 24,1 23,21 35,13 20,-14 -7,-13 -7,-22 1,-30 5,-5 8,-16 6,-22 -3,-9 -9,-8 -21,5 -17,16 -19,16 -39,-1 -20,-19 -20,-19 -13,14 4,21 2,38 -5,47 -10,12 -9,15 4,15 9,0 19,-7 23,-15 z"
       id="path136" />
    <path
       d="m 8174,5069 c -9,-15 12,-33 30,-26 9,4 16,13 16,22 0,17 -35,21 -46,4 z"
       id="path138" />
    <path
       d="m 10480,5680 c 0,-114 -9,-110 289,-110 138,0 252,4 255,9 6,9 9,86 7,144 l -1,27 h -275 -275 z m 72,-2 c 3,-29 7,-34 38,-38 24,-4 31,-8 22,-14 -7,-4 -28,-5 -47,-2 -29,6 -33,11 -37,42 -2,19 -2,37 1,39 12,12 20,2 23,-27 z m 173,22 c 4,-6 -8,-10 -29,-10 -48,0 -46,-20 2,-22 l 37,-1 -36,-4 c -27,-3 -38,-10 -42,-25 -3,-11 -10,-17 -16,-13 -15,9 -14,72 2,78 22,9 76,7 82,-3 z m 93,1 c 8,-5 12,-22 10,-42 -3,-36 -20,-46 -64,-35 -19,5 -24,13 -24,40 0,19 6,37 13,39 19,8 51,7 65,-2 z m 150,-12 c 2,-11 -8,-21 -30,-30 l -33,-13 33,-3 c 50,-6 38,-23 -18,-23 -42,0 -50,3 -50,19 0,12 12,24 33,32 l 32,13 -32,3 c -52,6 -39,24 14,21 35,-2 49,-8 51,-19 z"
       id="path140" />
    <path
       d="m 10764,5675 c -4,-9 -2,-21 4,-27 15,-15 44,-1 40,19 -4,23 -36,29 -44,8 z"
       id="path142" />
    <path
       d="m 10130,5280 v -40 h 45 c 25,0 46,5 46,10 1,6 2,16 3,23 5,30 -15,47 -54,47 -40,0 -40,0 -40,-40 z m 70,1 c 0,-23 -15,-35 -35,-27 -20,7 -7,46 16,46 12,0 19,-7 19,-19 z"
       id="path144" />
    <path
       d="m 10247,5313 c -12,-12 -8,-73 6,-74 6,0 27,-2 45,-4 17,-2 32,1 32,6 0,5 -13,9 -30,9 -16,0 -30,5 -30,10 0,6 17,10 37,10 43,0 34,16 -12,23 l -30,4 33,2 c 17,0 32,6 32,11 0,11 -73,14 -83,3 z"
       id="path146" />
    <path
       d="m 10350,5286 c 0,-25 6,-38 19,-46 25,-13 68,-13 76,0 4,6 -8,10 -29,10 -32,0 -35,3 -38,32 -4,45 -28,49 -28,4 z"
       id="path148" />
    <path
       d="m 10472,5308 c -15,-15 -16,-64 -1,-73 6,-4 13,2 16,14 3,12 13,21 23,21 10,0 20,-9 23,-21 8,-29 27,-14 27,20 0,34 -17,51 -50,51 -14,0 -31,-5 -38,-12 z m 58,-16 c 0,-4 -9,-8 -20,-8 -11,0 -20,4 -20,8 0,4 9,8 20,8 11,0 20,-4 20,-8 z"
       id="path150" />
    <path
       d="m 10573,5303 c -4,-10 2,-23 15,-34 12,-9 22,-22 22,-28 0,-6 5,-11 10,-11 6,0 10,6 10,14 0,8 9,18 20,21 13,4 20,15 20,31 0,29 -20,32 -27,4 -3,-11 -14,-20 -24,-20 -12,0 -19,7 -19,20 0,24 -18,26 -27,3 z"
       id="path152" />
    <path
       d="m 10771,5306 c -7,-8 -11,-27 -9,-42 4,-33 28,-45 28,-15 0,17 7,21 38,22 33,2 34,2 7,6 -46,7 -55,23 -12,23 20,0 37,5 37,10 0,16 -76,12 -89,-4 z"
       id="path154" />
    <path
       d="m 10887,5313 c -10,-10 -8,-83 2,-83 5,0 11,8 13,18 3,10 13,19 23,19 10,0 20,-9 23,-19 8,-32 22,-19 22,21 0,26 -5,41 -16,45 -21,8 -59,8 -67,-1 z m 53,-23 c 0,-5 -7,-10 -15,-10 -8,0 -15,5 -15,10 0,6 7,10 15,10 8,0 15,-4 15,-10 z"
       id="path156" />
    <path
       d="m 10990,5274 v -45 l 43,3 c 40,3 42,5 45,37 4,39 -9,51 -55,51 -32,0 -33,-1 -33,-46 z m 65,1 c 0,-13 -8,-21 -22,-23 -17,-3 -23,2 -23,16 0,10 3,22 7,26 13,13 38,1 38,-19 z"
       id="path158" />
    <path
       d="m 11117,5313 c -14,-4 -17,-13 -15,-41 3,-36 4,-37 46,-40 25,-2 42,1 42,7 0,6 -13,11 -30,11 -16,0 -30,5 -30,11 0,6 6,9 13,6 6,-2 21,-1 32,4 16,6 14,8 -12,8 -42,1 -44,21 -2,21 17,0 28,4 24,10 -6,10 -35,11 -68,3 z"
       id="path160" />
    <path
       d="m 2203,5924 c -8,-20 21,-49 41,-41 9,4 16,18 16,32 0,20 -5,25 -25,25 -14,0 -28,-7 -32,-16 z"
       id="path162" />
    <path
       d="m 3083,5933 c 9,-2 23,-2 30,0 6,3 -1,5 -18,5 -16,0 -22,-2 -12,-5 z"
       id="path164" />
    <path
       d="m 3372,5913 c 2,-22 8,-28 28,-28 20,0 25,5 25,25 0,20 -6,26 -28,28 -26,3 -28,1 -25,-25 z"
       id="path166" />
    <path
       d="m 3530,5930 c 0,-5 11,-10 25,-10 14,0 25,5 25,10 0,6 -11,10 -25,10 -14,0 -25,-4 -25,-10 z"
       id="path168" />
    <path
       d="m 6160,5930 c 0,-5 11,-10 25,-10 14,0 25,5 25,10 0,6 -11,10 -25,10 -14,0 -25,-4 -25,-10 z"
       id="path170" />
    <path
       d="m 8424,5915 c -10,-25 4,-47 28,-43 17,2 24,11 26,31 3,23 0,27 -23,27 -14,0 -28,-7 -31,-15 z"
       id="path172" />
    <path
       d="m 8580,5920 c 0,-5 11,-10 25,-10 14,0 25,5 25,10 0,6 -11,10 -25,10 -14,0 -25,-4 -25,-10 z"
       id="path174" />
    <path
       d="m 10622,5893 c 2,-22 9,-29 31,-31 24,-3 27,0 27,27 0,28 -3,31 -31,31 -27,0 -30,-3 -27,-27 z"
       id="path176" />
    <path
       d="m 12850,5531 c 0,-6 4,-13 10,-16 6,-3 7,1 4,9 -7,18 -14,21 -14,7 z"
       id="path178" />
    <path
       d="m 11983,5312 c -43,-3 -43,-3 -43,-43 0,-39 15,-53 26,-24 4,8 19,15 34,15 45,0 47,20 3,21 -34,2 -35,2 -8,6 31,5 53,18 38,24 -4,2 -27,3 -50,1 z"
       id="path180" />
    <path
       d="m 11677,5303 c -14,-13 -6,-23 26,-37 l 32,-14 -32,-1 c -18,-1 -33,-6 -33,-12 0,-15 92,-7 98,9 2,7 -11,19 -30,27 l -33,14 33,1 c 17,0 32,5 32,10 0,11 -83,14 -93,3 z"
       id="path182" />
    <path
       d="m 11790,5270 c 0,-22 5,-40 10,-40 6,0 10,7 10,15 0,9 9,15 25,15 16,0 25,-6 25,-15 0,-8 5,-15 10,-15 6,0 10,18 10,40 0,29 -4,40 -15,40 -8,0 -14,-6 -12,-12 1,-7 -8,-14 -20,-16 -16,-2 -23,2 -23,12 0,9 -4,16 -10,16 -5,0 -10,-18 -10,-40 z"
       id="path184" />
    <path
       d="m 11900,5270 c 0,-22 5,-40 10,-40 6,0 10,18 10,40 0,22 -4,40 -10,40 -5,0 -10,-18 -10,-40 z"
       id="path186" />
    <path
       d="m 12050,5300 c 0,-5 7,-10 15,-10 10,0 15,-10 15,-30 0,-20 5,-30 15,-30 10,0 15,10 15,30 0,19 5,30 14,30 8,0 18,5 21,10 4,6 -13,10 -44,10 -28,0 -51,-4 -51,-10 z"
       id="path188" />
    <path
       d="m 12560,5291 c 0,-12 11,-23 28,-29 l 27,-10 -27,-1 c -16,-1 -28,-6 -28,-12 0,-6 19,-9 48,-7 57,4 63,25 12,44 l -35,12 38,1 c 56,1 44,21 -13,21 -43,0 -50,-3 -50,-19 z"
       id="path190" />
    <path
       d="m 12677,5304 c -4,-4 -7,-22 -7,-41 0,-23 5,-33 15,-33 8,0 15,7 15,15 0,8 9,15 20,15 11,0 20,-7 20,-15 0,-8 7,-15 16,-15 12,0 14,9 12,38 -3,36 -5,37 -43,40 -23,2 -44,0 -48,-4 z m 56,-21 c -7,-2 -19,-2 -25,0 -7,3 -2,5 12,5 14,0 19,-2 13,-5 z"
       id="path192" />
    <path
       d="m 12894,5296 c -3,-8 -4,-25 -2,-38 3,-20 9,-23 51,-26 53,-3 66,14 15,21 l -33,4 33,1 c 44,3 41,20 -5,25 l -38,4 38,1 c 53,3 46,22 -8,22 -30,0 -47,-5 -51,-14 z"
       id="path194" />
    <path
       d="m 9870,5300 c 0,-5 7,-10 16,-10 8,0 12,5 9,10 -3,6 -10,10 -16,10 -5,0 -9,-4 -9,-10 z"
       id="path196" />
    <path
       d="m 12695,5110 c -9,-15 4,-30 26,-30 12,0 19,7 19,20 0,21 -33,29 -45,10 z"
       id="path198" />
    <path
       d="m 12815,5120 c -3,-5 3,-10 15,-10 12,0 18,5 15,10 -3,6 -10,10 -15,10 -5,0 -12,-4 -15,-10 z"
       id="path200" />
    <path
       d="m 12920,5100 c 0,-13 7,-20 20,-20 13,0 20,7 20,20 0,13 -7,20 -20,20 -13,0 -20,-7 -20,-20 z"
       id="path202" />
    <path
       d="m 11538,4879 c -16,-9 -18,-30 -18,-199 v -190 h 641 c 374,0 638,-4 635,-9 -8,-12 19,-21 65,-21 26,0 42,5 45,15 5,12 30,15 141,15 h 134 l -3,186 c -3,170 -5,187 -22,200 -17,12 -144,14 -810,14 -519,-1 -797,-4 -808,-11 z m 1320,-63 c 55,-29 77,-63 77,-122 0,-49 -3,-57 -37,-91 -34,-34 -43,-37 -102,-41 -38,-3 -71,0 -82,7 -17,11 -16,11 6,5 24,-7 24,-6 -7,29 -42,48 -51,103 -25,154 35,66 108,91 170,59 z m -1130,-118 c 2,-37 0,-48 -12,-48 -10,0 -16,12 -18,38 -2,20 -7,37 -13,37 -5,0 -11,-17 -13,-37 -2,-28 -8,-38 -20,-38 -13,0 -17,9 -17,35 0,47 -19,49 -23,3 -2,-29 -8,-38 -21,-38 -15,0 -18,7 -15,40 1,22 5,44 9,50 4,7 34,10 73,8 l 67,-3 z m 132,42 c 0,-5 -15,-10 -34,-10 -19,0 -38,-4 -41,-10 -4,-6 10,-10 34,-10 23,0 41,-4 41,-10 0,-5 -18,-10 -40,-10 -22,0 -40,-4 -40,-10 0,-5 18,-10 40,-10 22,0 40,-5 40,-10 0,-7 -22,-10 -57,-8 -52,3 -58,5 -61,27 -2,12 -1,34 2,47 6,22 12,24 61,24 30,0 55,-4 55,-10 z m 70,-15 c 29,-31 42,-32 38,-3 -2,15 3,24 15,26 14,3 17,-4 17,-47 0,-27 -5,-53 -11,-57 -6,-3 -26,8 -44,26 l -33,32 -4,-26 c -6,-47 -23,-33 -26,22 -4,60 10,68 48,27 z m 112,-12 c 3,-33 7,-38 31,-41 26,-3 27,-1 27,37 0,30 4,41 16,41 12,0 14,-10 12,-47 l -3,-48 h -55 -55 l -3,48 c -2,36 0,47 12,47 10,0 16,-12 18,-37 z"
       id="path204" />
    <path
       d="m 11515,4437 c -3,-7 -4,-58 -3,-112 l 3,-100 88,-3 88,-3 -3,113 -3,113 -83,3 c -62,2 -84,-1 -87,-11 z m 103,-94 c 2,-21 9,-33 18,-33 8,0 14,-4 14,-10 0,-5 -22,-10 -50,-10 -27,0 -50,5 -50,10 0,6 9,10 20,10 14,0 20,7 20,21 0,12 -8,23 -20,26 -32,9 -23,25 13,21 28,-3 32,-7 35,-35 z"
       id="path206" />
    <path
       d="m 11709,4446 c -2,-2 -3,-54 -1,-115 l 3,-111 h 308 c 225,0 310,-3 319,-12 9,-9 12,-180 10,-718 -1,-388 -4,-668 -5,-622 l -4,82 h -314 -315 v -115 -115 h 713 c 629,0 715,2 735,16 l 22,15 v 850 849 h -95 -95 v -745 c 0,-490 -3,-745 -10,-745 -7,0 -10,255 -10,745 v 745 h -628 c -346,0 -631,-2 -633,-4 z m 149,-78 c 18,-18 16,-78 -3,-78 -10,0 -15,10 -15,29 0,17 -4,33 -10,36 -6,4 -10,-8 -10,-29 0,-25 -4,-36 -15,-36 -11,0 -15,11 -15,36 0,21 -4,33 -10,29 -5,-3 -10,-19 -10,-36 0,-19 -5,-29 -15,-29 -19,0 -21,76 -2,83 24,10 93,7 105,-5 z m 120,-35 3,-43 h -44 c -46,0 -57,10 -57,49 0,28 22,42 60,39 33,-3 35,-5 38,-45 z m 110,38 c 8,-5 12,-22 10,-42 -3,-33 -5,-34 -50,-37 l -48,-3 v 45 46 h 38 c 20,0 43,-4 50,-9 z m 127,-1 c 4,-6 -8,-10 -29,-10 -20,0 -36,-4 -36,-10 0,-5 17,-10 37,-10 43,0 34,-16 -12,-23 -27,-4 -26,-4 8,-6 20,0 37,-6 37,-12 0,-6 -19,-9 -47,-7 -46,3 -48,4 -51,37 -2,20 2,37 10,42 18,12 76,11 83,-1 z m 259,4 c 9,-3 16,-17 16,-30 0,-21 -5,-24 -35,-24 -24,0 -35,-5 -35,-15 0,-8 -7,-15 -15,-15 -11,0 -15,11 -15,38 0,21 3,42 7,45 8,9 56,9 77,1 z m 114,0 c 19,-6 23,-12 20,-43 -3,-36 -4,-36 -48,-36 -44,0 -45,1 -48,34 -5,46 19,60 76,45 z m 62,-35 c 0,-27 3,-29 35,-29 19,0 35,-4 35,-10 0,-5 -20,-10 -44,-10 h -44 l -4,41 c -2,22 -2,42 1,44 10,10 21,-9 21,-36 z m 170,9 c 0,-11 -8,-22 -20,-25 -11,-3 -20,-12 -20,-19 0,-19 -5,-18 -34,10 -15,13 -26,31 -26,40 0,20 16,21 24,1 8,-23 43,-18 49,6 7,25 27,16 27,-13 z m 280,-9 c 0,-19 5,-29 15,-29 8,0 15,-4 15,-10 0,-5 -23,-10 -51,-10 -31,0 -48,4 -44,10 3,6 13,10 21,10 8,0 14,10 14,25 0,19 -5,25 -22,26 -18,1 -17,3 7,8 39,10 45,6 45,-30 z m -678,-241 c 2,-25 8,-34 26,-36 19,-3 22,1 22,33 0,25 4,35 13,33 7,-3 12,-21 12,-44 v -39 h -45 -45 l -3,43 c -4,49 15,58 20,10 z m 133,12 c 10,-11 22,-20 27,-20 4,0 8,9 8,20 0,11 5,20 10,20 6,0 10,-20 10,-45 0,-51 -11,-56 -47,-23 l -23,21 v -21 c 0,-13 -6,-22 -15,-22 -11,0 -15,11 -15,38 0,56 14,66 45,32 z m 103,-28 c 2,-33 0,-42 -12,-42 -12,0 -16,11 -16,46 0,59 24,55 28,-4 z m 156,42 c 22,-8 23,-84 1,-84 -8,0 -15,7 -15,15 0,8 -9,15 -19,15 -10,0 -21,-7 -25,-15 -11,-29 -26,-15 -26,24 0,29 5,41 18,44 27,7 49,8 66,1 z m 315,-8 c 13,-15 8,-21 -39,-43 -24,-11 -24,-11 13,-12 59,-1 43,-21 -18,-21 -65,0 -74,19 -22,47 l 32,18 -32,3 c -18,2 -33,7 -33,13 0,15 86,11 99,-5 z m -704,-272 c 0,-22 5,-30 23,-32 19,-3 22,1 22,33 0,25 4,35 13,33 7,-3 12,-21 12,-44 v -39 h -45 -45 l -3,44 c -2,32 0,42 10,39 7,-3 13,-18 13,-34 z m 130,16 c 10,-11 22,-20 27,-20 4,0 8,9 8,20 0,11 5,20 10,20 6,0 10,-20 10,-45 0,-50 -20,-61 -42,-25 -7,11 -16,20 -20,20 -5,0 -8,-9 -8,-20 0,-11 -7,-20 -15,-20 -10,0 -14,11 -13,38 1,58 12,66 43,32 z m 105,-25 c 0,-33 -4,-45 -15,-45 -11,0 -15,12 -15,45 0,33 4,45 15,45 11,0 15,-12 15,-45 z m 157,37 c 6,-4 11,-23 10,-42 -2,-34 -3,-35 -49,-38 l -48,-3 v 45 46 h 38 c 20,0 42,-4 49,-8 z m 314,-18 c 17,-46 4,-64 -47,-64 -24,0 -44,5 -44,10 0,6 16,10 36,10 19,0 33,4 30,8 -3,5 -18,7 -34,4 -16,-2 -33,1 -36,7 -5,7 5,11 28,11 20,0 36,5 36,10 0,6 -16,10 -36,10 -21,0 -33,4 -29,10 3,6 24,10 46,10 33,0 41,-4 50,-26 z m -631,-233 c 0,-5 -9,-11 -20,-14 -15,-4 -20,-14 -20,-37 0,-21 -4,-30 -12,-27 -7,2 -13,17 -13,33 -1,19 -6,30 -18,32 -37,7 -14,22 33,22 28,0 50,-4 50,-9 z m 105,-38 c 0,-45 -13,-55 -35,-28 -16,20 -30,19 -30,-1 0,-27 -25,-9 -28,20 -6,48 3,57 50,54 l 43,-3 z m 55,2 c 0,-33 -4,-45 -15,-45 -11,0 -15,12 -15,45 0,33 4,45 15,45 11,0 15,-12 15,-45 z m 403,25 c 7,-26 37,-26 44,0 9,34 28,16 28,-25 0,-40 -19,-59 -27,-27 -4,15 -12,18 -35,15 -26,-4 -31,-1 -35,21 -8,39 15,53 25,16 z m -568,-275 v -40 l -47,-3 -48,-3 v 46 46 l 48,-3 47,-3 z m 47,13 c 2,-25 8,-33 23,-33 15,0 21,8 23,33 4,41 26,38 30,-5 4,-38 -17,-55 -60,-51 -31,3 -33,5 -36,46 -4,49 15,58 20,10 z m 183,-13 c 0,-40 0,-40 -39,-40 -45,0 -62,19 -52,59 6,25 10,27 49,24 42,-3 42,-3 42,-43 z m 415,35 c 0,-5 -17,-10 -37,-10 l -38,-1 38,-20 c 21,-11 37,-26 34,-32 -5,-15 -86,-22 -100,-8 -8,8 1,11 29,12 l 39,1 -32,14 c -63,27 -54,54 18,54 27,0 49,-4 49,-10 z m -622,-287 c 4,-49 -15,-59 -20,-11 -4,46 -28,49 -28,4 0,-20 -4,-36 -10,-36 -5,0 -10,16 -10,35 0,19 -4,35 -10,35 -10,0 -12,-7 -14,-44 -1,-11 -7,-21 -13,-23 -14,-5 -19,68 -6,81 4,4 30,6 58,4 l 50,-3 z m 107,2 v -40 h -40 c -36,0 -40,2 -43,28 -6,47 4,59 45,55 37,-3 38,-4 38,-43 z m 65,25 c 6,-11 15,-20 20,-20 6,0 10,9 10,20 0,11 5,20 10,20 6,0 10,-20 10,-45 0,-49 -11,-56 -37,-25 -10,11 -21,20 -25,20 -5,0 -8,-9 -8,-20 0,-11 -4,-20 -10,-20 -5,0 -10,20 -10,45 0,49 20,62 40,25 z m 155,-25 v -40 h -40 c -36,0 -40,2 -43,28 -6,47 4,59 45,55 37,-3 38,-4 38,-43 z m 295,35 c 0,-5 -16,-10 -35,-10 -40,0 -48,-14 -9,-17 36,-2 51,-18 34,-38 -9,-11 -26,-15 -49,-13 -31,3 -36,7 -39,31 -6,48 3,57 53,57 25,0 45,-4 45,-10 z m -700,-160 c 0,-5 -7,-10 -15,-10 -8,0 -15,5 -15,10 0,6 7,10 15,10 8,0 15,-4 15,-10 z m 105,0 c -3,-5 -15,-10 -25,-10 -10,0 -22,5 -25,10 -4,6 7,10 25,10 18,0 29,-4 25,-10 z m 130,0 c -3,-5 -15,-10 -25,-10 -10,0 -22,5 -25,10 -4,6 7,10 25,10 18,0 29,-4 25,-10 z m 130,0 c -3,-5 -17,-10 -31,-10 -13,0 -24,5 -24,10 0,6 14,10 31,10 17,0 28,-4 24,-10 z m 107,-2 c -9,-9 -15,-9 -24,0 -9,9 -7,12 12,12 19,0 21,-3 12,-12 z m -1044,-127 c 2,-31 0,-42 -9,-39 -7,2 -13,17 -14,33 0,15 -6,30 -12,32 -9,3 -13,-7 -13,-32 0,-46 -24,-43 -28,3 -4,44 -22,40 -22,-4 0,-24 -4,-34 -12,-32 -16,6 -22,32 -14,64 6,23 10,25 64,22 l 57,-3 z m 42,14 c 0,-19 0,-38 1,-42 0,-4 -4,-9 -10,-11 -7,-2 -11,14 -11,42 0,25 5,46 10,46 6,0 10,-16 10,-35 z m 118,-4 c 4,-40 -9,-51 -60,-51 h -38 v 46 45 l 48,-3 c 45,-3 47,-4 50,-37 z m 42,4 c 0,-19 0,-38 1,-42 0,-4 -4,-9 -10,-11 -7,-2 -11,14 -11,42 0,25 5,46 10,46 6,0 10,-16 10,-35 z m 140,20 c 0,-13 -7,-15 -35,-9 -31,6 -35,4 -35,-15 0,-26 25,-38 45,-21 18,15 30,7 22,-15 -8,-18 -67,-21 -85,-3 -13,13 -16,60 -5,71 3,4 26,7 50,7 32,0 43,-4 43,-15 z m 284,0 c 5,-13 0,-15 -29,-9 -31,5 -35,4 -35,-14 0,-27 17,-37 35,-22 20,16 40,3 24,-16 -12,-15 -46,-18 -73,-8 -16,6 -23,64 -9,77 13,14 81,7 87,-8 z m 46,0 c 0,-8 9,-15 20,-15 11,0 20,7 20,15 0,8 7,15 15,15 11,0 15,-11 15,-39 0,-44 -18,-65 -27,-32 -3,12 -13,21 -23,21 -10,0 -20,-9 -23,-21 -9,-33 -27,-12 -27,32 0,28 4,39 15,39 8,0 15,-7 15,-15 z m 178,-27 c 3,-33 0,-38 -22,-44 -47,-11 -61,-2 -64,44 l -3,43 43,-3 c 42,-3 43,-4 46,-40 z m 108,27 c 4,-8 3,-23 -2,-32 -4,-10 -6,-24 -5,-30 1,-8 -4,-10 -14,-7 -8,3 -15,10 -15,15 0,5 -7,9 -15,9 -8,0 -15,-7 -15,-15 0,-8 -4,-15 -10,-15 -5,0 -10,20 -10,45 v 45 h 40 c 27,0 43,-5 46,-15 z m 114,-24 c 0,-42 -11,-51 -61,-51 -28,0 -29,2 -29,45 v 45 h 45 45 z m 198,18 c 3,-18 -74,-76 -86,-65 -4,5 9,21 28,37 l 34,29 h -37 c -20,0 -37,5 -37,11 0,18 94,7 98,-12 z"
       id="path208" />
    <path
       d="m 11914,4345 c -4,-9 -2,-21 4,-27 15,-15 44,-1 40,19 -4,23 -36,29 -44,8 z"
       id="path210" />
    <path
       d="m 12037,4354 c -16,-16 -7,-44 14,-44 15,0 20,5 17,22 -3,22 -19,33 -31,22 z"
       id="path212" />
    <path
       d="m 12420,4350 c 0,-5 9,-10 20,-10 11,0 20,5 20,10 0,6 -9,10 -20,10 -11,0 -20,-4 -20,-10 z"
       id="path214" />
    <path
       d="m 12541,4342 c -12,-22 -6,-32 21,-32 14,0 19,6 16,22 -4,29 -24,34 -37,10 z"
       id="path216" />
    <path
       d="m 12760,4100 c 0,-5 9,-10 20,-10 11,0 20,5 20,10 0,6 -9,10 -20,10 -11,0 -20,-4 -20,-10 z"
       id="path218" />
    <path
       d="m 12760,3850 c 0,-5 9,-10 20,-10 11,0 20,5 20,10 0,6 -9,10 -20,10 -11,0 -20,-4 -20,-10 z"
       id="path220" />
    <path
       d="m 12768,3813 c 6,-2 18,-2 25,0 6,3 1,5 -13,5 -14,0 -19,-2 -12,-5 z"
       id="path222" />
    <path
       d="m 12540,3600 c 0,-5 9,-10 20,-10 11,0 20,5 20,10 0,6 -9,10 -20,10 -11,0 -20,-4 -20,-10 z"
       id="path224" />
    <path
       d="m 12430,3334 c 0,-33 33,-30 38,4 3,17 -2,22 -17,22 -16,0 -21,-6 -21,-26 z"
       id="path226" />
    <path
       d="m 12662,3338 c 4,-27 33,-36 42,-13 8,22 -1,35 -25,35 -15,0 -20,-6 -17,-22 z"
       id="path228" />
    <path
       d="m 12564,3095 c -7,-18 3,-35 21,-35 15,0 28,27 19,41 -8,14 -34,11 -40,-6 z"
       id="path230" />
    <path
       d="m 12784,3095 c -4,-9 -2,-21 3,-26 14,-14 45,1 41,20 -4,22 -37,26 -44,6 z"
       id="path232" />
    <path
       d="m 13070,3070 c 0,-5 7,-10 15,-10 8,0 15,5 15,10 0,6 -7,10 -15,10 -8,0 -15,-4 -15,-10 z"
       id="path234" />
    <path
       d="m 11960,2834 c 0,-33 33,-30 38,4 3,17 -2,22 -17,22 -16,0 -21,-6 -21,-26 z"
       id="path236" />
    <path
       d="m 12652,2838 c 4,-27 33,-36 42,-13 8,22 -1,35 -25,35 -15,0 -20,-6 -17,-22 z"
       id="path238" />
    <path
       d="m 12765,2850 c 3,-5 13,-10 21,-10 8,0 14,5 14,10 0,6 -9,10 -21,10 -11,0 -17,-4 -14,-10 z"
       id="path240" />
    <path
       d="m 12873,2844 c -3,-8 -1,-20 5,-26 16,-16 42,-2 42,22 0,24 -38,28 -47,4 z"
       id="path242" />
    <path
       d="m 11519,4193 c 0,-5 -1,-55 -1,-113 v -105 l 86,-3 86,-3 v 116 115 h -85 c -47,0 -85,-3 -86,-7 z m 138,-80 c 3,-6 -13,-21 -34,-32 l -38,-20 38,-1 c 20,0 37,-4 37,-10 0,-5 -25,-10 -56,-10 -47,0 -55,3 -52,17 2,10 17,25 33,33 l 30,15 -32,3 c -18,2 -33,8 -33,13 0,14 103,7 107,-8 z"
       id="path244" />
    <path
       d="m 11710,4085 v -115 h 310 310 v 115 115 h -310 -310 z m 58,7 c 3,-29 6,-32 38,-32 19,0 34,-5 34,-11 0,-6 -19,-9 -47,-7 l -48,3 -3,44 c -2,32 0,42 10,39 7,-3 14,-19 16,-36 z m 187,28 c 4,-6 -8,-10 -29,-10 -20,0 -36,-4 -36,-10 0,-5 16,-10 36,-10 21,0 33,-4 29,-10 -3,-5 -22,-10 -41,-10 -24,0 -34,-5 -34,-15 0,-8 -4,-15 -10,-15 -11,0 -14,73 -3,83 10,11 81,8 88,-3 z m 110,-35 c 0,-39 -1,-40 -39,-43 -41,-4 -56,8 -56,44 0,30 21,45 60,42 34,-3 35,-5 35,-43 z m 143,24 c 2,-10 -10,-21 -35,-32 l -38,-15 38,-1 c 56,-1 44,-21 -13,-21 -42,0 -50,3 -50,19 0,12 12,24 33,32 l 32,13 -32,3 c -52,6 -39,24 14,21 34,-2 49,-8 51,-19 z"
       id="path246" />
    <path
       d="m 12007,4104 c -4,-4 -7,-16 -7,-26 0,-14 6,-19 23,-16 14,2 22,10 22,23 0,20 -25,32 -38,19 z"
       id="path248" />
    <path
       d="m 11519,3946 c -2,-2 -3,-54 -1,-115 l 3,-111 h 85 84 v 115 115 h -83 c -46,0 -86,-2 -88,-4 z m 126,-111 v -40 l -47,-3 c -29,-2 -48,1 -48,7 0,6 16,11 35,11 47,0 45,20 -2,22 l -38,1 38,4 c 47,5 49,23 2,23 -19,0 -35,5 -35,11 0,6 19,9 48,7 l 47,-3 z"
       id="path250" />
    <path
       d="m 11710,3835 v -115 h 310 310 v 115 115 h -310 -310 z m 104,29 c 3,-8 2,-23 -3,-32 -4,-9 -6,-23 -4,-29 6,-18 -7,-16 -29,3 -16,16 -18,16 -24,0 -12,-31 -24,-16 -24,29 v 45 h 39 c 26,0 41,-5 45,-16 z m 106,6 c 0,-5 -13,-10 -30,-10 -16,0 -30,-4 -30,-10 0,-5 14,-10 31,-10 19,0 28,-4 23,-11 -3,-6 -17,-8 -30,-5 -14,4 -24,2 -24,-4 0,-5 14,-10 30,-10 17,0 30,-5 30,-11 0,-6 -17,-9 -42,-7 -39,3 -43,6 -46,31 -6,46 4,57 48,57 22,0 40,-4 40,-10 z m 38,-23 c 4,-36 19,-34 27,3 10,45 29,38 20,-7 -8,-46 -12,-53 -29,-53 -19,0 -33,20 -41,59 -5,26 -4,32 6,29 8,-3 15,-17 17,-31 z m 147,23 c 4,-6 -7,-10 -24,-10 -17,0 -31,-4 -31,-10 0,-5 14,-10 31,-10 16,0 28,-4 25,-9 -3,-4 -17,-6 -31,-3 -15,2 -25,0 -25,-7 0,-6 14,-11 30,-11 17,0 30,-5 30,-11 0,-6 -17,-9 -42,-7 -39,3 -43,6 -46,31 -2,16 -1,35 2,43 6,16 71,19 81,4 z m 101,-5 c 4,-8 3,-23 -2,-32 -4,-10 -6,-24 -5,-30 3,-18 -14,-16 -30,3 -11,14 -13,14 -21,0 -16,-29 -28,-17 -28,29 v 45 h 40 c 27,0 43,-5 46,-15 z m 99,-30 c 0,-40 0,-40 -42,-43 l -43,-3 v 39 c 0,48 5,54 50,50 34,-3 35,-4 35,-43 z"
       id="path252" />
    <path
       d="m 11755,3850 c -3,-5 3,-10 14,-10 12,0 21,5 21,10 0,6 -6,10 -14,10 -8,0 -18,-4 -21,-10 z"
       id="path254" />
    <path
       d="m 12150,3850 c 0,-5 7,-10 15,-10 8,0 15,5 15,10 0,6 -7,10 -15,10 -8,0 -15,-4 -15,-10 z"
       id="path256" />
    <path
       d="m 12250,3850 c 0,-5 7,-10 15,-10 8,0 15,5 15,10 0,6 -7,10 -15,10 -8,0 -15,-4 -15,-10 z"
       id="path258" />
    <path
       d="m 12255,3820 c -3,-5 1,-10 10,-10 9,0 13,5 10,10 -3,6 -8,10 -10,10 -2,0 -7,-4 -10,-10 z"
       id="path260" />
    <path
       d="m 11520,3585 v -115 h 85 85 v 115 115 h -85 -85 z m 60,30 c 0,-9 9,-15 25,-15 16,0 25,6 25,16 0,9 6,14 13,12 7,-3 12,-21 12,-43 0,-22 -5,-40 -12,-42 -7,-3 -13,2 -13,11 0,15 -23,21 -58,17 -7,-1 -15,5 -18,14 -8,19 2,45 16,45 5,0 10,-7 10,-15 z"
       id="path262" />
    <path
       d="m 11710,3585 v -115 h 310 310 v 115 115 h -310 -310 z m 158,-2 c 2,-34 0,-43 -12,-43 -12,0 -16,10 -16,35 0,19 -4,35 -10,35 -5,0 -10,-16 -10,-35 0,-24 -5,-35 -15,-35 -10,0 -15,11 -15,35 0,19 -4,35 -10,35 -5,0 -10,-16 -10,-35 0,-24 -5,-35 -15,-35 -11,0 -15,11 -15,38 0,21 3,42 7,46 4,4 32,6 63,4 l 55,-3 z m 118,23 c 3,-14 3,-34 -1,-46 -6,-18 -13,-21 -48,-18 -38,3 -42,6 -45,31 -6,46 4,57 47,57 35,0 42,-4 47,-24 z m 109,-21 v -40 l -47,-3 -48,-3 v 46 46 l 48,-3 47,-3 z m 77,13 c 4,-43 22,-42 26,0 4,38 26,39 27,1 0,-37 20,-38 23,-1 4,41 26,38 30,-5 4,-41 -16,-55 -75,-51 l -48,3 -3,43 c -4,49 15,58 20,10 z"
       id="path264" />
    <path
       d="m 11914,3595 c -4,-9 -2,-21 4,-27 15,-15 44,-1 40,19 -4,23 -36,29 -44,8 z"
       id="path266" />
    <path
       d="m 12030,3585 c 0,-18 5,-25 19,-25 24,0 33,13 25,34 -10,27 -44,20 -44,-9 z"
       id="path268" />
    <path
       d="m 11520,3335 v -115 h 85 85 v 115 115 h -85 -85 z m 140,35 c 0,-5 -17,-10 -37,-11 l -38,-1 38,-15 c 52,-22 46,-47 -12,-51 -24,-2 -49,2 -54,7 -8,8 0,11 27,11 22,0 35,4 31,10 -3,6 -14,10 -24,10 -22,0 -45,25 -36,40 8,13 105,13 105,0 z"
       id="path270" />
    <path
       d="m 11710,3335 v -115 h 310 310 v 115 115 h -310 -310 z m 67,15 c 3,-16 9,-30 13,-30 5,0 13,14 19,30 14,42 35,40 26,-2 -13,-60 -43,-76 -69,-35 -24,39 -29,67 -11,67 9,0 18,-12 22,-30 z m 183,20 c 0,-5 -16,-10 -36,-10 -19,0 -33,-4 -29,-9 3,-5 16,-8 30,-5 13,2 27,0 30,-6 4,-6 -8,-10 -29,-10 -20,0 -36,-4 -36,-10 0,-5 16,-10 35,-10 19,0 35,-5 35,-11 0,-6 -19,-9 -47,-7 -44,3 -48,5 -51,31 -6,48 3,57 53,57 25,0 45,-4 45,-10 z m 42,-22 c 3,-30 6,-33 41,-36 48,-4 38,-22 -13,-22 -42,0 -53,10 -55,49 -3,51 22,58 27,9 z m 183,-13 v -40 h -45 c -42,0 -45,2 -48,28 -6,49 3,58 50,55 43,-3 43,-3 43,-43 z"
       id="path272" />
    <path
       d="m 12120,3335 c 0,-18 5,-25 20,-25 15,0 20,7 20,25 0,18 -5,25 -20,25 -15,0 -20,-7 -20,-25 z"
       id="path274" />
    <path
       d="m 11520,3085 v -115 h 85 85 v 115 115 h -85 -85 z m 140,35 c 0,-5 -17,-10 -37,-11 l -38,-1 32,-9 c 39,-11 49,-25 33,-44 -26,-31 -100,-13 -94,23 1,6 2,21 3,32 1,17 8,20 51,20 28,0 50,-4 50,-10 z"
       id="path276" />
    <path
       d="m 11590,3070 c 0,-5 7,-10 15,-10 8,0 15,5 15,10 0,6 -7,10 -15,10 -8,0 -15,-4 -15,-10 z"
       id="path278" />
    <path
       d="m 11710,3085 v -115 l 313,2 312,3 -1,35 c -1,19 -2,70 -3,113 l -1,77 h -310 -310 z m 128,-2 c 3,-44 -11,-59 -21,-23 -7,26 -37,26 -44,0 -8,-29 -27,-19 -31,14 -6,48 3,57 50,54 43,-3 43,-3 46,-45 z m 122,37 c 0,-5 -17,-11 -37,-12 l -38,-1 38,-4 c 46,-5 49,-23 3,-23 -25,0 -35,-5 -39,-20 -9,-34 -27,-22 -27,18 0,21 3,42 7,45 10,11 93,8 93,-3 z m 120,0 c 0,-5 -9,-10 -20,-10 -16,0 -20,-7 -20,-35 0,-24 -5,-35 -15,-35 -10,0 -15,11 -15,35 0,24 -5,35 -15,35 -8,0 -15,5 -15,10 0,6 23,10 50,10 28,0 50,-4 50,-10 z m 110,0 c 0,-5 -17,-11 -37,-11 -34,-2 -35,-2 -8,-6 46,-7 55,-23 12,-23 -20,0 -37,-4 -37,-10 0,-5 16,-10 35,-10 19,0 35,-5 35,-11 0,-6 -19,-9 -47,-7 -44,3 -48,5 -51,31 -6,48 3,57 53,57 25,0 45,-4 45,-10 z m 106,-5 c 4,-8 1,-21 -5,-29 -6,-7 -9,-21 -5,-30 8,-20 -9,-21 -26,-1 -16,20 -30,19 -30,-1 0,-35 -25,-4 -28,34 l -3,42 h 46 c 31,0 47,-5 51,-15 z"
       id="path280" />
    <path
       d="m 11778,3103 c 6,-2 18,-2 25,0 6,3 1,5 -13,5 -14,0 -19,-2 -12,-5 z"
       id="path282" />
    <path
       d="m 12230,3100 c 0,-5 9,-10 20,-10 11,0 20,5 20,10 0,6 -9,10 -20,10 -11,0 -20,-4 -20,-10 z"
       id="path284" />
    <path
       d="m 11520,2851 c 0,-121 8,-131 107,-131 h 63 v 115 115 h -85 -85 z m 137,13 c 8,-20 -52,-74 -82,-73 -16,0 -12,6 20,34 l 40,35 h -37 c -21,0 -38,5 -38,10 0,6 20,10 45,10 33,0 47,-5 52,-16 z"
       id="path286" />
    <path
       d="m 11128,4773 c 7,-3 16,-2 19,1 4,3 -2,6 -13,5 -11,0 -14,-3 -6,-6 z"
       id="path288" />
    <path
       d="m 11310,4761 c 0,-15 6,-21 21,-21 25,0 22,33 -4,38 -12,2 -17,-3 -17,-17 z"
       id="path290" />
    <path
       d="m 2340,2750 c 0,-5 7,-10 16,-10 8,0 12,5 9,10 -3,6 -10,10 -16,10 -5,0 -9,-4 -9,-10 z"
       id="path292" />
    <path
       d="m 3588,2753 c 6,-2 18,-2 25,0 6,3 1,5 -13,5 -14,0 -19,-2 -12,-5 z"
       id="path294" />
    <path
       d="m 3590,2720 c 0,-5 7,-10 15,-10 8,0 15,5 15,10 0,6 -7,10 -15,10 -8,0 -15,-4 -15,-10 z"
       id="path296" />
    <path
       d="m 3956,2753 c -14,-15 -5,-43 14,-43 13,0 20,7 20,19 0,19 -23,35 -34,24 z"
       id="path298" />
    <path
       d="m 4682,2733 c 5,-26 38,-29 38,-4 0,15 -6,21 -21,21 -14,0 -19,-5 -17,-17 z"
       id="path300" />
    <path
       d="m 6058,2743 c 6,-2 18,-2 25,0 6,3 1,5 -13,5 -14,0 -19,-2 -12,-5 z"
       id="path302" />
    <path
       d="m 7758,2743 c 7,-3 16,-2 19,1 4,3 -2,6 -13,5 -11,0 -14,-3 -6,-6 z"
       id="path304" />
    <path
       d="m 8290,2730 c 0,-16 5,-21 23,-18 12,2 22,10 22,18 0,8 -10,16 -22,18 -18,3 -23,-2 -23,-18 z"
       id="path306" />
    <path
       d="m 9390,2740 c 0,-5 6,-10 14,-10 8,0 18,5 21,10 3,6 -3,10 -14,10 -12,0 -21,-4 -21,-10 z"
       id="path308" />
    <path
       d="m 10265,2740 c 3,-5 13,-10 21,-10 8,0 14,5 14,10 0,6 -9,10 -21,10 -11,0 -17,-4 -14,-10 z"
       id="path310" />
    <path
       d="m 10378,2743 c 6,-2 18,-2 25,0 6,3 1,5 -13,5 -14,0 -19,-2 -12,-5 z"
       id="path312" />
    <path
       d="m 10948,2743 c 6,-2 18,-2 25,0 6,3 1,5 -13,5 -14,0 -19,-2 -12,-5 z"
       id="path314" />
    <path
       d="m 12162,2331 c -9,-5 -12,-25 -10,-57 l 3,-49 h 80 80 l 3,58 3,57 h -73 c -40,0 -79,-4 -86,-9 z"
       id="path316" />
    <path
       d="m 12442,2283 3,-58 79,-3 c 57,-2 82,1 88,10 11,17 -1,91 -16,100 -6,4 -44,8 -84,8 h -73 z"
       id="path318" />
    <path
       d="m 11067,2328 c -14,-11 -18,-24 -15,-58 3,-45 3,-45 46,-51 23,-3 61,-3 85,0 l 42,6 v 55 55 l -70,3 c -47,2 -76,-2 -88,-10 z"
       id="path320" />
    <path
       d="m 11483,2333 c -7,-2 -13,-16 -13,-29 0,-23 2,-24 85,-24 72,0 86,3 94,18 16,31 -6,42 -83,41 -39,0 -77,-3 -83,-6 z"
       id="path322" />
    <path
       d="m 11849,2254 c -20,-25 14,-44 77,-44 68,0 104,14 104,40 0,18 -6,20 -84,20 -65,0 -87,-4 -97,-16 z"
       id="path324" />
    <path
       d="m 12741,2326 c -7,-8 -11,-34 -9,-58 l 3,-43 h 80 80 v 55 55 l -71,3 c -53,2 -74,-1 -83,-12 z"
       id="path326" />
    <path
       d="m 11264,1803 c 10,-10 97,-13 113,-4 11,5 -7,9 -51,9 -37,0 -65,-2 -62,-5 z"
       id="path328" />
  </g>
</svg>
